<svg width="1920" height="821" viewBox="0 0 1920 821" fill="none" xmlns="http://www.w3.org/2000/svg">
<g opacity="0.15" clip-path="url(#clip0_2571_227)">
<path d="M1944.48 100.605V48.9355L1899.74 23.1009L1855 -2.73372L1810.24 -28.5683V-131.9H1810.26L1855 -157.735V-54.4029L1899.74 -28.5683L1944.48 -2.73372L1989.23 23.1009V74.7701" stroke="#C1C1C1" stroke-miterlimit="10"/>
<path d="M1720.76 23.1012L1765.5 -2.73343V-54.4026L1765.51 -106.065L1765.5 -157.741L1854.99 -209.41L1855 -209.397L1899.74 -183.569L1810.25 -131.9V-80.2308V-28.568V23.1012L1765.5 48.9293" stroke="#C1C1C1" stroke-miterlimit="10"/>
<path d="M1944.48 462.276V410.614L1899.74 384.779L1855 358.945L1810.24 333.11V229.778H1810.26L1855 203.943V307.275L1899.74 333.11L1944.48 358.945L1989.23 384.779V436.448" stroke="#C1C1C1" stroke-miterlimit="10"/>
<path d="M2123.46 307.282L2078.72 281.447L2033.98 307.275L1989.23 333.11L1944.48 358.951L1854.99 307.282L1855 307.275V255.606L1944.49 307.275L1989.23 281.447L2033.98 255.612L2078.72 229.778L2123.46 255.612" stroke="#C1C1C1" stroke-miterlimit="10"/>
<path d="M2078.72 74.7765L2033.98 100.611V152.274V203.943L2033.98 255.619L1944.49 307.281L1944.48 307.275L1899.74 281.44L1989.23 229.778V178.108V126.446V74.7765L2033.98 48.9419" stroke="#C1C1C1" stroke-miterlimit="10"/>
<path d="M1855 -2.72705V48.9421L1899.74 74.7767L1944.49 100.611L1989.24 126.439V229.778H1989.23L1944.49 255.612V152.274L1899.74 126.439L1855 100.611L1810.26 74.7767V23.1075" stroke="#C1C1C1" stroke-miterlimit="10"/>
<path d="M1676.02 152.274L1720.76 178.109L1765.5 152.274L1810.25 126.446L1855 100.605L1944.49 152.268L1944.48 152.281V203.943L1855 152.274L1810.25 178.109L1765.51 203.943L1720.76 229.772L1676.02 203.943" stroke="#C1C1C1" stroke-miterlimit="10"/>
<path d="M1720.76 384.779L1765.5 358.944V307.275L1765.51 255.612L1765.5 203.937L1854.99 152.268L1855 152.28L1899.74 178.109L1810.25 229.778V281.447V333.11V384.772L1765.5 410.607" stroke="#C1C1C1" stroke-miterlimit="10"/>
<path d="M1944.49 203.943V255.612L1899.74 281.447L1855 255.612V203.943L1899.74 178.108L1944.49 203.943Z" stroke="#C1C1C1" stroke-miterlimit="10"/>
<path d="M1944.48 823.954V772.291L1899.74 746.457L1855 720.622L1810.24 694.788V591.456H1810.26L1855 565.621V668.953L1899.74 694.788L1944.48 720.622L1989.23 746.457V798.126" stroke="#C1C1C1" stroke-miterlimit="10"/>
<path d="M2123.46 668.959L2078.72 643.125L2033.98 668.953L1989.23 694.787L1944.48 720.628L1854.99 668.959L1855 668.953V617.284L1944.49 668.953L1989.23 643.118L2033.98 617.29L2078.72 591.456L2123.46 617.29" stroke="#C1C1C1" stroke-miterlimit="10"/>
<path d="M2078.72 436.455L2033.98 462.289V513.952V565.621L2033.98 617.297L1944.49 668.96L1944.48 668.953L1899.74 643.119L1989.23 591.456V539.787V488.117V436.455L2033.98 410.62" stroke="#C1C1C1" stroke-miterlimit="10"/>
<path d="M1855 358.951V410.62L1899.74 436.454L1944.49 462.289L1989.24 488.117V591.456H1989.23L1944.49 617.29V513.952L1899.74 488.117L1855 462.289L1810.26 436.454V384.785" stroke="#C1C1C1" stroke-miterlimit="10"/>
<path d="M1676.02 513.952L1720.76 539.787L1765.5 513.952L1810.25 488.117L1855 462.276L1944.49 513.946L1944.48 513.958V565.621L1855 513.952L1810.25 539.787L1765.51 565.621L1720.76 591.449L1676.02 565.621" stroke="#C1C1C1" stroke-miterlimit="10"/>
<path d="M1720.76 746.457L1765.5 720.622V668.953L1765.51 617.29L1765.5 565.614L1854.99 513.945L1855 513.958L1899.74 539.786L1810.25 591.455V643.118V694.787V746.45L1765.5 772.285" stroke="#C1C1C1" stroke-miterlimit="10"/>
<path d="M1944.49 565.621V617.29L1899.74 643.119L1855 617.29V565.621L1899.74 539.787L1944.49 565.621Z" stroke="#C1C1C1" stroke-miterlimit="10"/>
<path d="M2078.72 798.132L2033.98 823.967V875.63V927.299L2033.98 978.974L1944.49 1030.64L1944.48 1030.63L1899.74 1004.8L1989.23 953.134V901.464V849.795V798.132L2033.98 772.298" stroke="#C1C1C1" stroke-miterlimit="10"/>
<path d="M1855 720.628V772.298L1899.74 798.132L1944.49 823.96L1989.24 849.795V953.133H1989.23L1944.49 978.968V875.63L1899.74 849.795L1855 823.96L1810.26 798.132V746.463" stroke="#C1C1C1" stroke-miterlimit="10"/>
<path d="M1631.27 281.44V229.778L1586.53 203.943L1541.78 178.109L1497.03 152.274V48.942H1497.04L1541.78 23.1074V126.439L1586.53 152.274L1631.27 178.109L1676.02 203.943V255.606" stroke="#C1C1C1" stroke-miterlimit="10"/>
<path d="M1810.26 126.439L1765.51 100.611L1720.76 126.439L1676.02 152.274L1631.27 178.115L1541.78 126.446L1541.78 126.439V74.7701L1631.28 126.439L1676.02 100.605L1720.76 74.7765L1765.51 48.9419L1810.25 74.7765" stroke="#C1C1C1" stroke-miterlimit="10"/>
<path d="M1765.51 -106.059L1720.76 -80.2244V-28.5616V23.1076L1720.77 74.7831L1631.28 126.446L1631.27 126.44L1586.53 100.605L1676.02 48.9421V-2.727V-54.3962L1676.02 -106.059L1720.76 -131.894" stroke="#C1C1C1" stroke-miterlimit="10"/>
<path d="M1541.78 -183.563V-131.894L1586.53 -106.059L1631.27 -80.231L1676.02 -54.3964V48.9419H1676.02L1631.27 74.7765V-28.5618L1586.53 -54.3964L1541.78 -80.231L1497.04 -106.059V-157.728" stroke="#C1C1C1" stroke-miterlimit="10"/>
<path d="M1362.8 -28.5617L1407.55 -2.72713L1452.3 -28.5617L1497.04 -54.3963L1541.79 -80.2373L1631.28 -28.5681L1631.27 -28.5617L1631.28 23.1075L1541.78 -28.5617L1497.04 -2.72713L1452.3 23.1075L1407.55 48.9356L1362.8 23.1011" stroke="#C1C1C1" stroke-miterlimit="10"/>
<path d="M1407.55 203.943L1452.29 178.109L1452.3 126.44V74.7769L1452.29 23.1013L1541.78 -28.5679L1541.78 -28.5615L1586.53 -2.72688L1497.04 48.9423V100.605V152.274V203.937L1452.29 229.772" stroke="#C1C1C1" stroke-miterlimit="10"/>
<path d="M1631.27 23.1075V74.7767L1586.53 100.605L1541.78 74.7767V23.1075L1586.53 -2.72705L1631.27 23.1075Z" stroke="#C1C1C1" stroke-miterlimit="10"/>
<path d="M1631.27 643.118V591.455L1586.53 565.621L1541.78 539.786L1497.03 513.952V410.62H1497.04L1541.78 384.785V488.117L1586.53 513.952L1631.27 539.786L1676.02 565.621V617.284" stroke="#C1C1C1" stroke-miterlimit="10"/>
<path d="M1810.26 488.117L1765.51 462.289L1720.76 488.117L1676.02 513.952L1631.27 539.793L1541.78 488.124L1541.78 488.117V436.448L1631.28 488.117L1676.02 462.283L1720.76 436.455L1765.51 410.62L1810.25 436.455" stroke="#C1C1C1" stroke-miterlimit="10"/>
<path d="M1765.51 255.619L1720.76 281.447V333.116V384.785L1720.77 436.455L1631.28 488.124L1631.27 488.117L1586.53 462.283L1676.02 410.614V358.951V307.282L1676.02 255.619L1720.76 229.784" stroke="#C1C1C1" stroke-miterlimit="10"/>
<path d="M1541.78 178.115V229.784L1586.53 255.619L1631.27 281.447L1676.02 307.281V410.62H1676.02L1631.27 436.448V333.116L1586.53 307.281L1541.78 281.447L1497.04 255.619V203.949" stroke="#C1C1C1" stroke-miterlimit="10"/>
<path d="M1362.8 333.116L1407.55 358.951L1452.3 333.116L1497.04 307.281L1541.79 281.44L1631.28 333.11L1631.27 333.116L1631.28 384.785L1541.78 333.116L1497.04 358.951L1452.3 384.785L1407.55 410.613L1362.8 384.779" stroke="#C1C1C1" stroke-miterlimit="10"/>
<path d="M1407.55 565.621L1452.29 539.787L1452.3 488.117V436.455L1452.29 384.779L1541.78 333.11L1541.78 333.116L1586.53 358.951L1497.04 410.62V462.283V513.952V565.615L1452.29 591.449" stroke="#C1C1C1" stroke-miterlimit="10"/>
<path d="M1631.27 384.785V436.448L1586.53 462.283L1541.78 436.448V384.785L1586.53 358.951L1631.27 384.785Z" stroke="#C1C1C1" stroke-miterlimit="10"/>
<path d="M1631.27 1004.8V953.133L1586.53 927.299L1541.78 901.464L1497.03 875.63V772.298H1497.04L1541.78 746.463V849.795L1586.53 875.63L1631.27 901.464L1676.02 927.299V978.961" stroke="#C1C1C1" stroke-miterlimit="10"/>
<path d="M1810.26 849.795L1765.51 823.961L1720.76 849.795L1676.02 875.63L1631.27 901.471L1541.78 849.802L1541.78 849.795V798.126L1631.28 849.795L1676.02 823.961L1720.76 798.132L1765.51 772.298L1810.25 798.132" stroke="#C1C1C1" stroke-miterlimit="10"/>
<path d="M1765.51 617.297L1720.76 643.125V694.794V746.463L1720.77 798.132L1631.28 849.801L1631.27 849.795L1586.53 823.961L1676.02 772.291V720.628V668.959L1676.02 617.297L1720.76 591.462" stroke="#C1C1C1" stroke-miterlimit="10"/>
<path d="M1541.78 539.793V591.462L1586.53 617.297L1631.27 643.125L1676.02 668.959V772.298H1676.02L1631.27 798.126V694.794L1586.53 668.959L1541.78 643.125L1497.04 617.297V565.628" stroke="#C1C1C1" stroke-miterlimit="10"/>
<path d="M1362.8 694.794L1407.55 720.629L1452.3 694.794L1497.04 668.96L1541.79 643.119L1631.28 694.788L1631.27 694.794L1631.28 746.463L1541.78 694.794L1497.04 720.629L1452.3 746.463L1407.55 772.292L1362.8 746.457" stroke="#C1C1C1" stroke-miterlimit="10"/>
<path d="M1407.55 927.299L1452.29 901.464L1452.3 849.795V798.132L1452.29 746.457L1541.78 694.788L1541.78 694.794L1586.53 720.629L1497.04 772.298V823.961V875.63V927.293L1452.29 953.127" stroke="#C1C1C1" stroke-miterlimit="10"/>
<path d="M1631.27 746.463V798.126L1586.53 823.96L1541.78 798.126V746.463L1586.53 720.628L1631.27 746.463Z" stroke="#C1C1C1" stroke-miterlimit="10"/>
<path d="M1318.05 100.605V48.9355L1273.3 23.1009L1228.56 -2.73372L1183.81 -28.5683V-131.9H1183.82L1228.56 -157.735V-54.4029L1273.3 -28.5683L1318.05 -2.73372L1362.79 23.1009V74.7701" stroke="#C1C1C1" stroke-miterlimit="10"/>
<path d="M1094.32 23.1012L1139.07 -2.73343V-54.4026V-106.065V-157.741L1228.56 -209.41L1228.56 -209.397L1273.3 -183.569L1183.82 -131.9V-80.2308V-28.568V23.1012L1139.07 48.9293" stroke="#C1C1C1" stroke-miterlimit="10"/>
<path d="M1318.05 462.276V410.614L1273.3 384.779L1228.56 358.945L1183.81 333.11V229.778H1183.82L1228.56 203.943V307.275L1273.3 333.11L1318.05 358.945L1362.79 384.779V436.448" stroke="#C1C1C1" stroke-miterlimit="10"/>
<path d="M1497.03 307.282L1452.28 281.447L1407.54 307.275L1362.8 333.11L1318.05 358.951L1228.56 307.282L1228.56 307.275V255.606L1318.05 307.275L1362.8 281.447L1407.54 255.612L1452.28 229.778L1497.03 255.612" stroke="#C1C1C1" stroke-miterlimit="10"/>
<path d="M1452.28 74.7765L1407.54 100.611V152.274L1407.54 203.943L1407.54 255.619L1318.06 307.281L1318.05 307.275L1273.3 281.44L1362.8 229.778V178.108V126.446V74.7765L1407.54 48.9419" stroke="#C1C1C1" stroke-miterlimit="10"/>
<path d="M1228.56 -2.72705V48.9421L1273.3 74.7767L1318.05 100.611L1362.8 126.439V229.778H1362.79L1318.05 255.612V152.274L1273.3 126.439L1228.56 100.611L1183.82 74.7767V23.1075" stroke="#C1C1C1" stroke-miterlimit="10"/>
<path d="M1049.58 152.274L1094.32 178.109L1139.07 152.274L1183.82 126.446L1228.56 100.605L1318.06 152.268L1318.05 152.281V203.943L1228.56 152.274L1183.82 178.109L1139.07 203.943L1094.32 229.772L1049.58 203.943" stroke="#C1C1C1" stroke-miterlimit="10"/>
<path d="M1094.32 384.779L1139.07 358.944V307.275V255.612V203.937L1228.56 152.268L1228.56 152.28L1273.3 178.109L1183.82 229.778V281.447V333.11V384.772L1139.07 410.607" stroke="#C1C1C1" stroke-miterlimit="10"/>
<path d="M1318.05 203.943V255.612L1273.3 281.447L1228.56 255.612V203.943L1273.3 178.108L1318.05 203.943Z" stroke="#C1C1C1" stroke-miterlimit="10"/>
<path d="M1318.05 823.954V772.291L1273.3 746.457L1228.56 720.622L1183.81 694.788V591.456H1183.82L1228.56 565.621V668.953L1273.3 694.788L1318.05 720.622L1362.79 746.457V798.126" stroke="#C1C1C1" stroke-miterlimit="10"/>
<path d="M1497.03 668.959L1452.28 643.125L1407.54 668.953L1362.8 694.787L1318.05 720.628L1228.56 668.959L1228.56 668.953V617.284L1318.05 668.953L1362.8 643.118L1407.54 617.29L1452.28 591.456L1497.03 617.29" stroke="#C1C1C1" stroke-miterlimit="10"/>
<path d="M1452.28 436.455L1407.54 462.289V513.952L1407.54 565.621L1407.54 617.297L1318.06 668.96L1318.05 668.953L1273.3 643.119L1362.8 591.456V539.787V488.117V436.455L1407.54 410.62" stroke="#C1C1C1" stroke-miterlimit="10"/>
<path d="M1228.56 358.951V410.62L1273.3 436.454L1318.05 462.289L1362.8 488.117V591.456H1362.79L1318.05 617.29V513.952L1273.3 488.117L1228.56 462.289L1183.82 436.454V384.785" stroke="#C1C1C1" stroke-miterlimit="10"/>
<path d="M1049.58 513.952L1094.32 539.787L1139.07 513.952L1183.82 488.117L1228.56 462.276L1318.06 513.946L1318.05 513.958V565.621L1228.56 513.952L1183.82 539.787L1139.07 565.621L1094.32 591.449L1049.58 565.621" stroke="#C1C1C1" stroke-miterlimit="10"/>
<path d="M1094.32 746.457L1139.07 720.622V668.953V617.29V565.614L1228.56 513.945L1228.56 513.958L1273.3 539.786L1183.82 591.455V643.118V694.787V746.45L1139.07 772.285" stroke="#C1C1C1" stroke-miterlimit="10"/>
<path d="M1318.05 565.621V617.29L1273.3 643.119L1228.56 617.29V565.621L1273.3 539.787L1318.05 565.621Z" stroke="#C1C1C1" stroke-miterlimit="10"/>
<path d="M1452.28 798.132L1407.54 823.967V875.63L1407.54 927.299L1407.54 978.974L1318.06 1030.64L1318.05 1030.63L1273.3 1004.8L1362.8 953.134V901.464V849.795V798.132L1407.54 772.298" stroke="#C1C1C1" stroke-miterlimit="10"/>
<path d="M1228.56 720.628V772.298L1273.3 798.132L1318.05 823.96L1362.8 849.795V953.133H1362.79L1318.05 978.968V875.63L1273.3 849.795L1228.56 823.96L1183.82 798.132V746.463" stroke="#C1C1C1" stroke-miterlimit="10"/>
<path d="M1004.84 281.44V229.778L960.089 203.943L915.349 178.109L870.596 152.274V48.942H870.602L915.349 23.1074V126.439L960.089 152.274L1004.84 178.109L1049.58 203.943V255.606" stroke="#C1C1C1" stroke-miterlimit="10"/>
<path d="M1183.82 126.439L1139.07 100.611L1094.33 126.439L1049.58 152.274L1004.84 178.115L915.343 126.446L915.349 126.439V74.7701L1004.84 126.439L1049.58 100.605L1094.33 74.7765L1139.07 48.9419L1183.82 74.7765" stroke="#C1C1C1" stroke-miterlimit="10"/>
<path d="M1139.08 -106.059L1094.33 -80.2244V-28.5616V23.1076V74.7831L1004.84 126.446L1004.84 126.44L960.09 100.605L1049.58 48.9421V-2.727V-54.3962V-106.059L1094.33 -131.894" stroke="#C1C1C1" stroke-miterlimit="10"/>
<path d="M915.349 -183.563V-131.894L960.09 -106.059L1004.84 -80.231L1049.59 -54.3964V48.9419H1049.58L1004.84 74.7765V-28.5618L960.09 -54.3964L915.349 -80.231L870.603 -106.059V-157.728" stroke="#C1C1C1" stroke-miterlimit="10"/>
<path d="M736.369 -28.5617L781.109 -2.72713L825.856 -28.5617L870.603 -54.3963L915.349 -80.2373L1004.84 -28.5681L1004.84 -28.5617V23.1075L915.349 -28.5617L870.603 -2.72713L825.856 23.1075L781.116 48.9356L736.369 23.1011" stroke="#C1C1C1" stroke-miterlimit="10"/>
<path d="M781.109 203.943L825.856 178.109V126.44V74.7769V23.1013L915.343 -28.5679L915.349 -28.5615L960.096 -2.72688L870.603 48.9423V100.605V152.274V203.937L825.856 229.772" stroke="#C1C1C1" stroke-miterlimit="10"/>
<path d="M1004.84 23.1075V74.7767L960.09 100.605L915.35 74.7767V23.1075L960.09 -2.72705L1004.84 23.1075Z" stroke="#C1C1C1" stroke-miterlimit="10"/>
<path d="M1004.84 643.118V591.455L960.089 565.621L915.349 539.786L870.596 513.952V410.62H870.602L915.349 384.785V488.117L960.089 513.952L1004.84 539.786L1049.58 565.621V617.284" stroke="#C1C1C1" stroke-miterlimit="10"/>
<path d="M1183.82 488.117L1139.07 462.289L1094.33 488.117L1049.58 513.952L1004.84 539.793L915.343 488.124L915.349 488.117V436.448L1004.84 488.117L1049.58 462.283L1094.33 436.455L1139.07 410.62L1183.82 436.455" stroke="#C1C1C1" stroke-miterlimit="10"/>
<path d="M1139.08 255.619L1094.33 281.447V333.116V384.785V436.455L1004.84 488.124L1004.84 488.117L960.09 462.283L1049.58 410.614V358.951V307.282V255.619L1094.33 229.784" stroke="#C1C1C1" stroke-miterlimit="10"/>
<path d="M915.349 178.115V229.784L960.09 255.619L1004.84 281.447L1049.59 307.281V410.62H1049.58L1004.84 436.448V333.116L960.09 307.281L915.349 281.447L870.603 255.619V203.949" stroke="#C1C1C1" stroke-miterlimit="10"/>
<path d="M736.369 333.116L781.109 358.951L825.856 333.116L870.603 307.281L915.349 281.44L1004.84 333.11L1004.84 333.116V384.785L915.349 333.116L870.603 358.951L825.856 384.785L781.116 410.613L736.369 384.779" stroke="#C1C1C1" stroke-miterlimit="10"/>
<path d="M781.109 565.621L825.856 539.787V488.117V436.455V384.779L915.343 333.11L915.349 333.116L960.096 358.951L870.603 410.62V462.283V513.952V565.615L825.856 591.449" stroke="#C1C1C1" stroke-miterlimit="10"/>
<path d="M1004.84 384.785V436.448L960.09 462.283L915.35 436.448V384.785L960.09 358.951L1004.84 384.785Z" stroke="#C1C1C1" stroke-miterlimit="10"/>
<path d="M1004.84 1004.8V953.133L960.089 927.299L915.349 901.464L870.596 875.63V772.298H870.602L915.349 746.463V849.795L960.089 875.63L1004.84 901.464L1049.58 927.299V978.961" stroke="#C1C1C1" stroke-miterlimit="10"/>
<path d="M1183.82 849.795L1139.07 823.961L1094.33 849.795L1049.58 875.63L1004.84 901.471L915.343 849.802L915.349 849.795V798.126L1004.84 849.795L1049.58 823.961L1094.33 798.132L1139.07 772.298L1183.82 798.132" stroke="#C1C1C1" stroke-miterlimit="10"/>
<path d="M1139.08 617.297L1094.33 643.125V694.794V746.463V798.132L1004.84 849.801L1004.84 849.795L960.09 823.961L1049.58 772.291V720.628V668.959V617.297L1094.33 591.462" stroke="#C1C1C1" stroke-miterlimit="10"/>
<path d="M915.349 539.793V591.462L960.09 617.297L1004.84 643.125L1049.59 668.959V772.298H1049.58L1004.84 798.126V694.794L960.09 668.959L915.349 643.125L870.603 617.297V565.628" stroke="#C1C1C1" stroke-miterlimit="10"/>
<path d="M736.369 694.794L781.109 720.629L825.856 694.794L870.603 668.96L915.349 643.119L1004.84 694.788L1004.84 694.794V746.463L915.349 694.794L870.603 720.629L825.856 746.463L781.116 772.292L736.369 746.457" stroke="#C1C1C1" stroke-miterlimit="10"/>
<path d="M781.109 927.299L825.856 901.464V849.795V798.132V746.457L915.343 694.788L915.349 694.794L960.096 720.629L870.603 772.298V823.961V875.63V927.293L825.856 953.127" stroke="#C1C1C1" stroke-miterlimit="10"/>
<path d="M1004.84 746.463V798.126L960.09 823.96L915.35 798.126V746.463L960.09 720.628L1004.84 746.463Z" stroke="#C1C1C1" stroke-miterlimit="10"/>
<path d="M691.616 100.605V48.9355L646.869 23.1009L602.122 -2.73372L557.369 -28.5683V-131.9H557.382L602.122 -157.735V-54.4029L646.869 -28.5683L691.616 -2.73372L736.356 23.1009V74.7701" stroke="#C1C1C1" stroke-miterlimit="10"/>
<path d="M467.889 23.1012L512.635 -2.73343V-54.4026V-106.065L512.629 -157.741L602.122 -209.41V-209.397L646.869 -183.569L557.382 -131.9L557.376 -80.2308V-28.568V23.1012L512.635 48.9293" stroke="#C1C1C1" stroke-miterlimit="10"/>
<path d="M691.616 462.276V410.614L646.869 384.779L602.122 358.945L557.369 333.11V229.778H557.382L602.122 203.943V307.275L646.869 333.11L691.616 358.945L736.356 384.779V436.448" stroke="#C1C1C1" stroke-miterlimit="10"/>
<path d="M870.596 307.282L825.849 281.447L781.102 307.275L736.362 333.11L691.609 358.951L602.122 307.282V307.275V255.606L691.615 307.275L736.362 281.447L781.102 255.612L825.849 229.778L870.596 255.612" stroke="#C1C1C1" stroke-miterlimit="10"/>
<path d="M825.849 74.7765L781.103 100.611V152.274V203.943L781.109 255.619L691.616 307.281V307.275L646.869 281.44L736.356 229.778L736.363 178.108V126.446V74.7765L781.103 48.9419" stroke="#C1C1C1" stroke-miterlimit="10"/>
<path d="M602.122 -2.72705V48.9421L646.869 74.7767L691.616 100.611L736.369 126.439V229.778H736.356L691.616 255.612V152.274L646.869 126.439L602.122 100.611L557.382 74.7767V23.1075" stroke="#C1C1C1" stroke-miterlimit="10"/>
<path d="M423.143 152.274L467.889 178.109L512.636 152.274L557.376 126.446L602.129 100.605L691.616 152.268V152.281V203.943L602.123 152.274L557.376 178.109L512.636 203.943L467.889 229.772L423.143 203.943" stroke="#C1C1C1" stroke-miterlimit="10"/>
<path d="M467.889 384.779L512.635 358.944V307.275V255.612L512.629 203.937L602.122 152.268V152.28L646.869 178.109L557.382 229.778L557.376 281.447V333.11V384.772L512.635 410.607" stroke="#C1C1C1" stroke-miterlimit="10"/>
<path d="M691.615 203.943V255.612L646.869 281.447L602.122 255.612V203.943L646.869 178.108L691.615 203.943Z" stroke="#C1C1C1" stroke-miterlimit="10"/>
<path d="M691.616 823.954V772.291L646.869 746.457L602.122 720.622L557.369 694.788V591.456H557.382L602.122 565.621V668.953L646.869 694.788L691.616 720.622L736.356 746.457V798.126" stroke="#C1C1C1" stroke-miterlimit="10"/>
<path d="M870.596 668.959L825.849 643.125L781.102 668.953L736.362 694.787L691.609 720.628L602.122 668.959V668.953V617.284L691.615 668.953L736.362 643.118L781.102 617.29L825.849 591.456L870.596 617.29" stroke="#C1C1C1" stroke-miterlimit="10"/>
<path d="M825.849 436.455L781.103 462.289V513.952V565.621L781.109 617.297L691.616 668.96V668.953L646.869 643.119L736.356 591.456L736.363 539.787V488.117V436.455L781.103 410.62" stroke="#C1C1C1" stroke-miterlimit="10"/>
<path d="M602.122 358.951V410.62L646.869 436.454L691.616 462.289L736.369 488.117V591.456H736.356L691.616 617.29V513.952L646.869 488.117L602.122 462.289L557.382 436.454V384.785" stroke="#C1C1C1" stroke-miterlimit="10"/>
<path d="M423.143 513.952L467.889 539.787L512.636 513.952L557.376 488.117L602.129 462.276L691.616 513.946V513.958V565.621L602.123 513.952L557.376 539.787L512.636 565.621L467.889 591.449L423.143 565.621" stroke="#C1C1C1" stroke-miterlimit="10"/>
<path d="M467.889 746.457L512.635 720.622V668.953V617.29L512.629 565.614L602.122 513.945V513.958L646.869 539.786L557.382 591.455L557.376 643.118V694.787V746.45L512.635 772.285" stroke="#C1C1C1" stroke-miterlimit="10"/>
<path d="M691.615 565.621V617.29L646.869 643.119L602.122 617.29V565.621L646.869 539.787L691.615 565.621Z" stroke="#C1C1C1" stroke-miterlimit="10"/>
<path d="M825.849 798.132L781.103 823.967V875.63V927.299L781.109 978.974L691.616 1030.64V1030.63L646.869 1004.8L736.356 953.134L736.363 901.464V849.795V798.132L781.103 772.298" stroke="#C1C1C1" stroke-miterlimit="10"/>
<path d="M602.122 720.628V772.298L646.869 798.132L691.616 823.96L736.369 849.795V953.133H736.356L691.616 978.968V875.63L646.869 849.795L602.122 823.96L557.382 798.132V746.463" stroke="#C1C1C1" stroke-miterlimit="10"/>
<path d="M378.402 281.44V229.778L333.655 203.943L288.915 178.109L244.162 152.274V48.942H244.169L288.915 23.1074V126.439L333.655 152.274L378.402 178.109L423.142 203.943V255.606" stroke="#C1C1C1" stroke-miterlimit="10"/>
<path d="M557.382 126.439L512.635 100.611L467.895 126.439L423.148 152.274L378.395 178.115L288.908 126.446L288.915 126.439V74.7701L378.402 126.439L423.148 100.605L467.888 74.7765L512.635 48.9419L557.382 74.7765" stroke="#C1C1C1" stroke-miterlimit="10"/>
<path d="M512.636 -106.059L467.895 -80.2244V-28.5616L467.889 23.1076L467.895 74.7831L378.408 126.446L378.402 126.44L333.655 100.605L423.149 48.9421V-2.727V-54.3962V-106.059L467.895 -131.894" stroke="#C1C1C1" stroke-miterlimit="10"/>
<path d="M288.915 -183.563V-131.894L333.655 -106.059L378.402 -80.231L423.155 -54.3964V48.9419H423.142L378.402 74.7765V-28.5618L333.655 -54.3964L288.915 -80.231L244.168 -106.059V-157.728" stroke="#C1C1C1" stroke-miterlimit="10"/>
<path d="M109.928 -28.5617L154.674 -2.72713L199.421 -28.5617L244.168 -54.3963L288.914 -80.2373L378.408 -28.5681L378.401 -28.5617V23.1075L288.908 -28.5617L244.168 -2.72713L199.421 23.1075L154.674 48.9356L109.934 23.1011" stroke="#C1C1C1" stroke-miterlimit="10"/>
<path d="M154.675 203.943L199.421 178.109V126.44V74.7769L199.415 23.1013L288.908 -28.5679L288.915 -28.5615L333.655 -2.72688L244.168 48.9423V100.605V152.274L244.162 203.937L199.421 229.772" stroke="#C1C1C1" stroke-miterlimit="10"/>
<path d="M378.402 23.1075V74.7767L333.655 100.605L288.915 74.7767V23.1075L333.655 -2.72705L378.402 23.1075Z" stroke="#C1C1C1" stroke-miterlimit="10"/>
<path d="M378.402 643.118V591.455L333.655 565.621L288.915 539.786L244.162 513.952V410.62H244.169L288.915 384.785V488.117L333.655 513.952L378.402 539.786L423.142 565.621V617.284" stroke="#C1C1C1" stroke-miterlimit="10"/>
<path d="M557.382 488.117L512.635 462.289L467.895 488.117L423.148 513.952L378.395 539.793L288.908 488.124L288.915 488.117V436.448L378.402 488.117L423.148 462.283L467.888 436.455L512.635 410.62L557.382 436.455" stroke="#C1C1C1" stroke-miterlimit="10"/>
<path d="M512.636 255.619L467.895 281.447V333.116L467.889 384.785L467.895 436.455L378.408 488.124L378.402 488.117L333.655 462.283L423.149 410.614V358.951V307.282V255.619L467.895 229.784" stroke="#C1C1C1" stroke-miterlimit="10"/>
<path d="M288.915 178.115V229.784L333.655 255.619L378.402 281.447L423.155 307.281V410.62H423.142L378.402 436.448V333.116L333.655 307.281L288.915 281.447L244.168 255.619V203.949" stroke="#C1C1C1" stroke-miterlimit="10"/>
<path d="M109.928 333.116L154.674 358.951L199.421 333.116L244.168 307.281L288.914 281.44L378.408 333.11L378.401 333.116V384.785L288.908 333.116L244.168 358.951L199.421 384.785L154.674 410.613L109.934 384.779" stroke="#C1C1C1" stroke-miterlimit="10"/>
<path d="M154.675 565.621L199.421 539.787V488.117V436.455L199.415 384.779L288.908 333.11L288.915 333.116L333.655 358.951L244.168 410.62V462.283V513.952L244.162 565.615L199.421 591.449" stroke="#C1C1C1" stroke-miterlimit="10"/>
<path d="M378.402 384.785V436.448L333.655 462.283L288.915 436.448V384.785L333.655 358.951L378.402 384.785Z" stroke="#C1C1C1" stroke-miterlimit="10"/>
<path d="M378.402 1004.8V953.133L333.655 927.299L288.915 901.464L244.162 875.63V772.298H244.169L288.915 746.463V849.795L333.655 875.63L378.402 901.464L423.142 927.299V978.961" stroke="#C1C1C1" stroke-miterlimit="10"/>
<path d="M557.382 849.795L512.635 823.961L467.895 849.795L423.148 875.63L378.395 901.471L288.908 849.802L288.915 849.795V798.126L378.402 849.795L423.148 823.961L467.888 798.132L512.635 772.298L557.382 798.132" stroke="#C1C1C1" stroke-miterlimit="10"/>
<path d="M512.636 617.297L467.895 643.125V694.794L467.889 746.463L467.895 798.132L378.408 849.801L378.402 849.795L333.655 823.961L423.149 772.291V720.628V668.959V617.297L467.895 591.462" stroke="#C1C1C1" stroke-miterlimit="10"/>
<path d="M288.915 539.793V591.462L333.655 617.297L378.402 643.125L423.155 668.959V772.298H423.142L378.402 798.126V694.794L333.655 668.959L288.915 643.125L244.168 617.297V565.628" stroke="#C1C1C1" stroke-miterlimit="10"/>
<path d="M109.928 694.794L154.674 720.629L199.421 694.794L244.168 668.96L288.914 643.119L378.408 694.788L378.401 694.794V746.463L288.908 694.794L244.168 720.629L199.421 746.463L154.674 772.292L109.934 746.457" stroke="#C1C1C1" stroke-miterlimit="10"/>
<path d="M154.675 927.299L199.421 901.464V849.795V798.132L199.415 746.457L288.908 694.788L288.915 694.794L333.655 720.629L244.168 772.298V823.961V875.63L244.162 927.293L199.421 953.127" stroke="#C1C1C1" stroke-miterlimit="10"/>
<path d="M378.402 746.463V798.126L333.655 823.96L288.915 798.126V746.463L333.655 720.628L378.402 746.463Z" stroke="#C1C1C1" stroke-miterlimit="10"/>
<path d="M65.1746 100.605V48.9355L20.4343 23.1009L-24.3124 -2.73372L-69.0654 -28.5683V-131.9H-69.0526L-24.3124 -157.735V-54.4029L20.4343 -28.5683L65.1746 -2.73372L109.921 23.1009V74.7701" stroke="#C1C1C1" stroke-miterlimit="10"/>
<path d="M-158.546 23.1012L-113.806 -2.73343V-54.4026L-113.799 -106.065L-113.806 -157.741L-24.3186 -209.41L-24.3122 -209.397L20.4345 -183.569L-69.0589 -131.9V-80.2308V-28.568V23.1012L-113.806 48.9293" stroke="#C1C1C1" stroke-miterlimit="10"/>
<path d="M65.1746 462.276V410.614L20.4343 384.779L-24.3124 358.945L-69.0654 333.11V229.778H-69.0526L-24.3124 203.943V307.275L20.4343 333.11L65.1746 358.945L109.921 384.779V436.448" stroke="#C1C1C1" stroke-miterlimit="10"/>
<path d="M244.162 307.282L199.415 281.447L154.668 307.275L109.922 333.11L65.175 358.951L-24.3184 307.282L-24.312 307.275V255.606L65.1814 307.275L109.922 281.447L154.668 255.612L199.415 229.778L244.155 255.612" stroke="#C1C1C1" stroke-miterlimit="10"/>
<path d="M199.415 74.7765L154.668 100.611V152.274V203.943L154.675 255.619L65.1813 307.281L65.1749 307.275L20.4346 281.44L109.922 229.778V178.108V126.446V74.7765L154.668 48.9419" stroke="#C1C1C1" stroke-miterlimit="10"/>
<path d="M-24.3115 -2.72705V48.9421L20.4352 74.7767L65.1755 100.611L109.929 126.439V229.778H109.922L65.1755 255.612V152.274L20.4352 126.439L-24.3115 100.611L-69.0518 74.7767V23.1075" stroke="#C1C1C1" stroke-miterlimit="10"/>
<path d="M-203.292 152.274L-158.545 178.109L-113.805 152.274L-69.0583 126.446L-24.3052 100.605L65.1817 152.268L65.1753 152.281V203.943L-24.3116 152.274L-69.0583 178.109L-113.799 203.943L-158.545 229.772L-203.292 203.943" stroke="#C1C1C1" stroke-miterlimit="10"/>
<path d="M-158.546 384.779L-113.806 358.944V307.275L-113.799 255.612L-113.806 203.937L-24.3186 152.268L-24.3122 152.28L20.4345 178.109L-69.0589 229.778V281.447V333.11V384.772L-113.806 410.607" stroke="#C1C1C1" stroke-miterlimit="10"/>
<path d="M65.1754 203.943V255.612L20.4352 281.447L-24.3115 255.612V203.943L20.4352 178.108L65.1754 203.943Z" stroke="#C1C1C1" stroke-miterlimit="10"/>
<path d="M65.1746 823.954V772.291L20.4343 746.457L-24.3124 720.622L-69.0654 694.788V591.456H-69.0526L-24.3124 565.621V668.953L20.4343 694.788L65.1746 720.622L109.921 746.457V798.126" stroke="#C1C1C1" stroke-miterlimit="10"/>
<path d="M244.162 668.959L199.415 643.125L154.668 668.953L109.922 694.787L65.175 720.628L-24.3184 668.959L-24.312 668.953V617.284L65.1814 668.953L109.922 643.118L154.668 617.29L199.415 591.456L244.155 617.29" stroke="#C1C1C1" stroke-miterlimit="10"/>
<path d="M199.415 436.455L154.668 462.289V513.952V565.621L154.675 617.297L65.1813 668.96L65.1749 668.953L20.4346 643.119L109.922 591.456V539.787V488.117V436.455L154.668 410.62" stroke="#C1C1C1" stroke-miterlimit="10"/>
<path d="M-24.3115 358.951V410.62L20.4352 436.454L65.1755 462.289L109.929 488.117V591.456H109.922L65.1755 617.29V513.952L20.4352 488.117L-24.3115 462.289L-69.0518 436.454V384.785" stroke="#C1C1C1" stroke-miterlimit="10"/>
<path d="M-203.292 513.952L-158.545 539.787L-113.805 513.952L-69.0583 488.117L-24.3052 462.276L65.1817 513.946L65.1753 513.958V565.621L-24.3116 513.952L-69.0583 539.787L-113.799 565.621L-158.545 591.449L-203.292 565.621" stroke="#C1C1C1" stroke-miterlimit="10"/>
<path d="M-158.546 746.457L-113.806 720.622V668.953L-113.799 617.29L-113.806 565.614L-24.3186 513.945L-24.3122 513.958L20.4345 539.786L-69.0589 591.455V643.118V694.787V746.45L-113.806 772.285" stroke="#C1C1C1" stroke-miterlimit="10"/>
<path d="M65.1754 565.621V617.29L20.4352 643.119L-24.3115 617.29V565.621L20.4352 539.787L65.1754 565.621Z" stroke="#C1C1C1" stroke-miterlimit="10"/>
<path d="M199.415 798.132L154.668 823.967V875.63V927.299L154.675 978.974L65.1813 1030.64L65.1749 1030.63L20.4346 1004.8L109.922 953.134V901.464V849.795V798.132L154.668 772.298" stroke="#C1C1C1" stroke-miterlimit="10"/>
<path d="M-24.3115 720.628V772.298L20.4352 798.132L65.1755 823.96L109.929 849.795V953.133H109.922L65.1755 978.968V875.63L20.4352 849.795L-24.3115 823.96L-69.0518 798.132V746.463" stroke="#C1C1C1" stroke-miterlimit="10"/>
</g>
<defs>
<clipPath id="clip0_2571_227">
<rect width="1920" height="820" fill="white" transform="translate(0 0.813965)"/>
</clipPath>
</defs>
</svg>
