<svg width="896" height="441" viewBox="0 0 896 441" fill="none" xmlns="http://www.w3.org/2000/svg">
<path d="M755.841 96.9235C760.294 109.894 754.656 125.777 740.334 143.482C726.031 161.164 703.165 180.534 673.469 200.412C614.084 240.162 527.483 281.874 427.743 316.113C328.002 350.352 234.041 370.624 162.763 375.729C127.12 378.281 97.1779 377.039 75.0304 371.87C52.8535 366.694 38.6491 357.622 34.1967 344.652C29.7443 331.682 35.3819 315.799 49.7042 298.094C64.0074 280.412 86.8733 261.041 116.569 241.164C175.954 201.414 262.555 159.702 362.295 125.463C462.036 91.2236 555.997 70.9516 627.275 65.847C662.918 63.2945 692.86 64.537 715.008 69.7058C737.184 74.8815 751.389 83.9534 755.841 96.9235Z" stroke="#ECECEC"/>
<path d="M790.69 96.9235C795.142 109.894 789.505 125.777 775.182 143.482C760.879 161.164 738.013 180.534 708.318 200.412C648.932 240.162 562.331 281.874 462.591 316.113C362.851 350.352 268.89 370.624 197.611 375.729C161.968 378.281 132.027 377.039 109.879 371.87C87.7021 366.694 73.4977 357.622 69.0453 344.652C64.5929 331.682 70.2305 315.799 84.5528 298.094C98.8561 280.412 121.722 261.041 151.418 241.164C210.803 201.414 297.404 159.702 397.144 125.463C496.884 91.2236 590.845 70.9516 662.124 65.847C697.767 63.2945 727.709 64.537 749.856 69.7058C772.033 74.8815 786.238 83.9534 790.69 96.9235Z" stroke="#ECECEC"/>
<path d="M829.202 96.9235C833.654 109.894 828.016 125.777 813.694 143.482C799.391 161.164 776.525 180.534 746.829 200.412C687.444 240.162 600.843 281.874 501.103 316.113C401.363 350.352 307.402 370.624 236.123 375.729C200.48 378.281 170.538 377.039 148.391 371.87C126.214 366.694 112.009 357.622 107.557 344.652C103.105 331.682 108.742 315.799 123.065 298.094C137.368 280.412 160.234 261.041 189.929 241.164C249.314 201.414 335.916 159.702 435.656 125.463C535.396 91.2236 629.357 70.9516 700.636 65.847C736.279 63.2945 766.22 64.537 788.368 69.7058C810.545 74.8815 824.749 83.9534 829.202 96.9235Z" stroke="#ECECEC"/>
<path d="M861.803 96.9235C866.256 109.894 860.618 125.777 846.296 143.482C831.992 161.164 809.127 180.534 779.431 200.412C720.046 240.162 633.445 281.874 533.704 316.113C433.964 350.352 340.003 370.624 268.725 375.729C233.082 378.281 203.14 377.039 180.992 371.87C158.815 366.694 144.611 357.622 140.159 344.652C135.706 331.682 141.344 315.799 155.666 298.094C169.969 280.412 192.835 261.041 222.531 241.164C281.916 201.414 368.517 159.702 468.257 125.463C567.998 91.2236 661.959 70.9516 733.237 65.847C768.88 63.2945 798.822 64.537 820.969 69.7058C843.146 74.8815 857.351 83.9534 861.803 96.9235Z" stroke="#ECECEC"/>
</svg>
