<svg xmlns="http://www.w3.org/2000/svg" width="101" height="101" viewBox="0 0 101 101" fill="none">
  <g opacity="0.7">
    <path fill-rule="evenodd" clip-rule="evenodd" d="M56.449 68.947H45.2236C44.6738 68.947 44.2275 68.5001 44.2275 67.9509V55.6338C44.2275 55.084 44.6738 54.6377 45.2236 54.6377H56.449C56.9988 54.6377 57.4451 55.0846 57.4451 55.6338V67.9509C57.4458 68.5007 56.999 68.947 56.449 68.947Z" fill="#FFD266"/>
    <path fill-rule="evenodd" clip-rule="evenodd" d="M57.9852 56.6283H43.6865C43.1367 56.6283 42.6904 56.1816 42.6904 55.6322V50.5156C42.6904 49.9658 43.1367 49.5195 43.6865 49.5195H57.9852C58.535 49.5195 58.9813 49.9658 58.9813 50.5156V55.6322C58.9813 56.1824 58.5354 56.6283 57.9852 56.6283Z" fill="#FFAE00"/>
    <path fill-rule="evenodd" clip-rule="evenodd" d="M25.696 39.872H31.5834C32.1332 39.872 32.5795 39.4257 32.5795 38.8759V34.1783C32.5795 34.7282 32.1332 35.1744 31.5834 35.1744H25.696C24.4909 35.1744 23.5101 34.1944 23.5101 32.9893V25.6784C23.5101 24.4735 24.4909 23.4932 25.696 23.4932H31.5834C32.1326 23.4932 32.5795 23.9395 32.5795 24.4893V19.791C32.5795 19.2412 32.1326 18.7949 31.5834 18.7949L25.696 18.7953C21.9004 18.7953 18.8125 21.8822 18.8125 25.678V32.9889C18.8127 36.7849 21.9006 39.872 25.696 39.872Z" fill="#FFAE00"/>
    <path fill-rule="evenodd" clip-rule="evenodd" d="M75.9772 39.872H70.0898C69.54 39.872 69.0938 39.4257 69.0938 38.8759V34.1783C69.0938 34.7282 69.54 35.1744 70.0898 35.1744H75.9772C77.1824 35.1744 78.1632 34.1944 78.1632 32.9893V25.6784C78.1632 24.4735 77.1824 23.4932 75.9772 23.4932H70.0898C69.5406 23.4932 69.0938 23.9395 69.0938 24.4893V19.791C69.0938 19.2412 69.5406 18.7949 70.0898 18.7949L75.9772 18.7953C79.7728 18.7953 82.8607 21.8822 82.8607 25.678V32.9889C82.8605 36.7849 79.7726 39.872 75.9772 39.872Z" fill="#FFAE00"/>
    <path fill-rule="evenodd" clip-rule="evenodd" d="M57.9851 51.5119H43.686C36.4629 51.5119 30.5859 45.6349 30.5859 38.4118V15.3564C30.5859 14.8066 31.0322 14.3604 31.582 14.3604L70.0898 14.3607C70.6396 14.3607 71.0859 14.8068 71.0859 15.3566V38.4122C71.0859 45.6349 65.209 51.5119 57.9851 51.5119Z" fill="#FFD266"/>
    <path fill-rule="evenodd" clip-rule="evenodd" d="M61.1294 74.0644H40.542C39.9922 74.0644 39.5459 73.6176 39.5459 73.0683V70.5097C39.5459 68.5494 41.1404 66.9541 43.1007 66.9541H58.5712C60.531 66.9541 62.1261 68.549 62.1261 70.5097V73.0683C62.1255 73.6182 61.6793 74.0644 61.1294 74.0644Z" fill="#FFAE00"/>
    <path fill-rule="evenodd" clip-rule="evenodd" d="M68.1631 93.1454H33.5097C32.1759 93.1454 31.0908 92.0603 31.0908 90.726V74.4904C31.0908 73.1568 32.1759 72.0717 33.5097 72.0717L68.1631 72.0713C69.4966 72.0713 70.5819 73.1566 70.5819 74.4902V90.7256C70.5821 92.0603 69.497 93.1454 68.1631 93.1454Z" fill="#A05F33"/>
    <path fill-rule="evenodd" clip-rule="evenodd" d="M64.9782 88.5372H36.6934C36.1435 88.5372 35.6973 88.0903 35.6973 87.5411V77.6748C35.6973 77.125 36.1435 76.6787 36.6934 76.6787L64.9782 76.6791C65.528 76.6791 65.9743 77.1258 65.9743 77.6752V87.5412C65.9751 88.0911 65.528 88.5372 64.9782 88.5372Z" fill="#C29679"/>
    <path fill-rule="evenodd" clip-rule="evenodd" d="M57.5378 42.2321C57.41 42.2321 57.2819 42.2072 57.1596 42.1574L50.8363 39.5628L44.513 42.1582C44.1936 42.288 43.8289 42.2453 43.5489 42.0425C43.2695 41.84 43.1152 41.5064 43.1416 41.1621L43.6564 34.3465L39.2335 29.1344C39.01 28.8709 38.939 28.5105 39.0461 28.1826C39.1525 27.854 39.4224 27.6044 39.758 27.5228L46.3993 25.9063L49.9886 20.0896C50.1698 19.7956 50.491 19.6162 50.8369 19.6162C51.1828 19.6162 51.503 19.7954 51.6849 20.0896L55.2736 25.9063L61.9157 27.5228C62.251 27.6044 62.52 27.854 62.6267 28.1826C62.7332 28.5113 62.6628 28.8715 62.4392 29.1344L58.0164 34.3461L58.5313 41.1615C58.5576 41.5061 58.4027 41.8394 58.1239 42.0422C57.9501 42.1678 57.7447 42.2321 57.5378 42.2321Z" fill="#FFAE00"/>
    <path fill-rule="evenodd" clip-rule="evenodd" d="M69.334 11.9411C68.7842 11.9411 68.3379 11.4948 68.3379 10.945V9.14141C68.3379 8.5916 68.7848 8.14551 69.334 8.14551C69.8834 8.14551 70.3301 8.59159 70.3301 9.14141V10.945C70.3309 11.4948 69.8838 11.9411 69.334 11.9411Z" fill="#FFCF00"/>
    <path fill-rule="evenodd" clip-rule="evenodd" d="M72.7882 12.8673C72.6194 12.8673 72.4478 12.8238 72.2909 12.7338C71.8152 12.4593 71.6513 11.8498 71.9266 11.3732L72.828 9.81136C73.1025 9.33547 73.7119 9.17213 74.1886 9.44684C74.6643 9.72136 74.8282 10.3308 74.5529 10.8075L73.6515 12.3693C73.4674 12.6883 73.1321 12.8673 72.7882 12.8673Z" fill="#FFCF00"/>
    <path fill-rule="evenodd" clip-rule="evenodd" d="M75.3208 15.3966C74.9771 15.3966 74.6422 15.2179 74.4577 14.8985C74.1832 14.4218 74.3455 13.8132 74.822 13.5379L76.3834 12.6365C76.8579 12.362 77.4681 12.5238 77.7438 13.001C78.0183 13.4775 77.856 14.0861 77.3795 14.3614L75.8181 15.2628C75.6612 15.3536 75.4902 15.3966 75.3208 15.3966Z" fill="#FFCF00"/>
    <path fill-rule="evenodd" clip-rule="evenodd" d="M32.3379 11.9411C31.7881 11.9411 31.3418 11.4948 31.3418 10.945V9.14141C31.3418 8.5916 31.7881 8.14551 32.3379 8.14551C32.8877 8.14551 33.334 8.59159 33.334 9.14141V10.945C33.334 11.4948 32.8885 11.9411 32.3379 11.9411Z" fill="#FFCF00"/>
    <path fill-rule="evenodd" clip-rule="evenodd" d="M28.8834 12.8672C28.5386 12.8672 28.2041 12.6888 28.0192 12.3684L27.1178 10.8066C26.8433 10.3307 27.0057 9.72125 27.4822 9.44595C27.958 9.17143 28.5683 9.33379 28.8428 9.81047L29.7442 11.3723C30.0187 11.8482 29.8563 12.4576 29.3798 12.7329C29.2238 12.8239 29.052 12.8672 28.8834 12.8672Z" fill="#FFCF00"/>
    <path fill-rule="evenodd" clip-rule="evenodd" d="M26.3514 15.3968C26.1824 15.3968 26.011 15.3531 25.8542 15.2631L24.2928 14.3617C23.8171 14.0872 23.6535 13.4777 23.9282 13.0012C24.2028 12.5246 24.8118 12.3614 25.2889 12.6367L26.8503 13.5381C27.326 13.8126 27.4895 14.4221 27.2146 14.8987C27.0307 15.2181 26.6959 15.3968 26.3514 15.3968Z" fill="#FFCF00"/>
    <path fill-rule="evenodd" clip-rule="evenodd" d="M61.0952 83.6045H40.5772C40.0273 83.6045 39.5811 83.1578 39.5811 82.6084C39.5811 82.0592 40.0273 81.6123 40.5772 81.6123H61.0952C61.645 81.6123 62.0913 82.0592 62.0913 82.6084C62.0913 83.1578 61.6452 83.6045 61.0952 83.6045Z" fill="#A05F33"/>
    <path fill-rule="evenodd" clip-rule="evenodd" d="M86.2911 93.1453H15.3809C14.831 93.1453 14.3848 92.6986 14.3848 92.1494C14.3848 91.6 14.831 91.1533 15.3809 91.1533H86.2911C86.8409 91.1533 87.2872 91.6 87.2872 92.1494C87.2872 92.6986 86.8409 93.1453 86.2911 93.1453Z" fill="#FFAE00"/>
  </g>
</svg>