<svg xmlns="http://www.w3.org/2000/svg" width="101" height="101" viewBox="0 0 101 101" fill="none">
  <g opacity="0.7">
    <path d="M85.4119 12.8877H73.781C72.1463 12.8877 70.7579 14.2254 70.7886 15.8599C70.8183 17.445 72.1124 18.7208 73.7047 18.7208H89.0752V16.551C89.0752 14.5278 87.4351 12.8877 85.4119 12.8877Z" fill="#FFD15B"/>
    <path d="M90.4199 12.8887H84.5863C86.1973 12.8887 87.5024 14.1936 87.5024 15.8047V28.0315H87.503C87.503 35.0209 81.8167 40.7071 74.8274 40.7071H73.7046C72.094 40.7071 70.7881 42.013 70.7881 43.6236C70.7881 45.2343 72.094 46.5402 73.7046 46.5402H74.8274C85.0329 46.54 93.336 38.2371 93.336 28.0313V15.8046C93.336 14.1936 92.0293 12.8887 90.4199 12.8887Z" fill="#FEB237"/>
    <path d="M20.5514 39.0292L23.6725 42.7812L20.5464 45.4357C13.431 42.8542 8.33594 36.026 8.33594 28.0307V15.8036C8.33594 14.1933 9.64248 12.8867 11.2528 12.8867H20.5464L23.6725 16.6038L20.5464 18.7205H14.1697V28.0307C14.1697 32.7306 16.7413 36.8411 20.5514 39.0292Z" fill="#FFD15B"/>
    <path d="M20.5469 18.7208H27.9676C29.5783 18.7208 30.8842 17.4149 30.8842 15.8043C30.8842 14.1936 29.5783 12.8877 27.9676 12.8877H20.5469V18.7208Z" fill="#FEB237"/>
    <path d="M27.9676 40.7068H26.8448C24.5533 40.7068 22.4038 40.0924 20.5469 39.0244V45.4359C22.5137 46.1498 24.6345 46.5399 26.8448 46.5399H27.9676C29.5783 46.5399 30.8842 45.2341 30.8842 43.6234C30.8842 42.0127 29.5783 40.7068 27.9676 40.7068Z" fill="#FEB237"/>
    <path d="M65.9678 50.6459C58.2696 58.9118 50.4171 63.0688 50.1448 85.8827H46.622V76.5394C46.622 67.7206 42.3554 59.5078 35.2947 54.2252C29.9391 50.2159 26.4727 43.8227 26.4727 36.6176V11.5808C26.4727 10.6361 27.238 9.86914 28.1826 9.86914L39.5032 14.5242L41.5834 9.86914H64.7542L70.7872 17.8827C70.7872 17.8827 73.8037 42.2322 65.9678 50.6459Z" fill="#FFD15B"/>
    <path d="M73.4879 9.86914H73.4876H61.5846L59.1132 14.5347H58.4695C57.8285 14.5347 57.2415 14.8929 56.9485 15.463L51.5843 25.8976L46.2199 15.463C45.9269 14.8931 45.3397 14.5347 44.6988 14.5347H42.5576L40.0861 9.86914H28.1826L40.4244 32.9026C37.639 35.6436 35.9307 39.4757 35.9935 43.7068C36.1122 51.7117 42.6685 58.2388 50.6737 58.3238C51.8975 58.3367 53.0875 58.2016 54.227 57.9351C54.7031 57.8239 55.0501 58.3859 54.7358 58.7604C50.5884 63.703 48.2081 69.9507 48.2081 76.5385V85.8834H55.0491V76.5385C55.0491 67.7188 59.3145 59.5078 66.3762 54.223C71.731 50.2159 75.1977 43.8212 75.1977 36.6176V11.5794C75.1977 10.6355 74.4336 9.86931 73.4879 9.86914ZM66.5815 45.2823C66.3509 45.8192 65.5373 45.6136 65.5977 45.0324C65.6507 44.5227 65.6779 44.0053 65.6779 43.4815C65.6779 39.3401 63.9811 35.5956 61.2456 32.9031L67.3905 21.3413C67.6414 20.8693 68.3567 21.0476 68.3567 21.582V36.6174C68.3567 39.6945 67.7239 42.6237 66.5815 45.2823Z" fill="#FEB237"/>
    <path d="M59.891 79.1953H35.5842C34.2358 79.1953 33.1426 80.2885 33.1426 81.6369V85.8831L63.0095 88.3219V82.3137C63.0095 80.5915 61.6133 79.1953 59.891 79.1953Z" fill="#FEB237"/>
    <path d="M68.5284 81.6376V85.8841L61.6874 87.4826V81.6376C61.6874 80.2882 60.5945 79.1953 59.2451 79.1953H66.0861C67.4355 79.1953 68.5284 80.2882 68.5284 81.6376Z" fill="#FE9901"/>
    <path d="M65.9604 85.8828H30.0588C28.2456 85.8828 26.7013 87.2928 26.6369 89.1048C26.5694 91.0072 28.0914 92.5708 29.9787 92.5708H65.9606C67.6936 92.5708 69.0986 91.1658 69.0986 89.4327V89.021C69.0986 87.2878 67.6936 85.8828 65.9604 85.8828Z" fill="#FFD15B"/>
    <path d="M75.0361 89.2273C75.0361 90.1509 74.6616 90.9873 74.0578 91.5926C73.4523 92.1964 72.6161 92.5709 71.6926 92.5709H64.8516C65.7751 92.5709 66.6115 92.1964 67.2168 91.5926C67.8206 90.9871 68.1951 90.1509 68.1951 89.2273C68.1951 87.3803 66.6987 85.8838 64.8516 85.8838H71.6926C73.5397 85.8838 75.0361 87.3803 75.0361 89.2273Z" fill="#FEB237"/>
    <path d="M62.6886 11.2098C62.6886 9.83452 61.5738 8.71973 60.1985 8.71973H58.4685C57.8276 8.71973 57.2416 9.07832 56.9478 9.64775L45.9824 30.9774H52.9856L62.6886 14.2846V11.2098Z" fill="#2944AE"/>
    <path d="M68.0062 11.2126L57.8439 30.9797H51.0029L61.1652 11.2126C61.7501 10.0752 60.924 8.7207 59.643 8.7207H66.484C67.7652 8.7207 68.5911 10.0752 68.0062 11.2126Z" fill="#213993"/>
    <path d="M45.3243 30.9789H57.1855L41.2199 9.64906C40.9269 9.07913 40.2228 8.7207 38.1785 8.7207H36.6842C35.4044 8.7207 34.5781 10.0747 35.1632 11.2129L45.3243 30.9789Z" fill="#5169CD"/>
    <path d="M39.6992 9.64939L50.6644 30.9789H57.1857L46.2203 9.64939C45.9278 9.07979 45.3413 8.7207 44.7 8.7207H38.1787C38.8184 8.7207 39.4067 9.07979 39.6992 9.64939Z" fill="#3351C5"/>
    <path d="M47.4157 52.1129C40.8664 50.569 35.9922 44.687 35.9922 37.6662C35.9922 30.6438 40.8697 24.7602 47.424 23.2196C47.7909 23.2112 59.764 23.0569 61.8109 36.9905C63.8895 51.1434 47.4157 52.1129 47.4157 52.1129Z" fill="#FFF0AD"/>
    <path d="M65.6789 37.6665C65.6789 45.8639 59.0328 52.5098 50.8356 52.5098C49.6589 52.5098 48.5131 52.373 47.415 52.113C53.9637 50.5688 58.8379 44.6872 58.8379 37.6665C58.8379 30.6459 53.9637 24.7643 47.415 23.22C48.5131 22.96 49.6589 22.8232 50.8356 22.8232C59.0328 22.8231 65.6789 29.4692 65.6789 37.6665Z" fill="#FFD15B"/>
    <path d="M56.5468 37.4321C56.5468 46.1297 47.6234 47.3283 47.4192 47.3549C43.4249 45.9471 40.5645 42.1403 40.5645 37.6662C40.5645 33.1904 43.4266 29.3837 47.4209 27.9775C47.6732 27.9975 56.5468 28.7611 56.5468 37.4321Z" fill="#FFD15B"/>
    <path d="M61.1075 37.6664C61.1075 43.3393 56.5087 47.9383 50.8356 47.9383C49.6367 47.9383 48.484 47.7331 47.415 47.3551C51.4067 45.9458 54.2663 42.1405 54.2663 37.6664C54.2663 33.1923 51.4067 29.3871 47.415 27.9777C48.484 27.5997 49.6367 27.3945 50.8356 27.3945C56.5085 27.3945 61.1075 31.9935 61.1075 37.6664Z" fill="#FEB237"/>
    <path d="M45.1436 40.5054C44.8354 40.5054 44.5262 40.395 44.2805 40.1712C43.7567 39.6942 43.7186 38.8831 44.1955 38.3593C45.0314 37.4411 46.4616 36.2122 48.5287 35.5724C49.1124 35.3926 49.7506 35.505 50.2365 35.8731C50.6627 36.1958 50.9318 36.6842 50.9821 37.2105C51.9187 36.4702 52.958 35.9212 54.0854 35.5722C54.6685 35.3929 55.3053 35.5045 55.7912 35.8716C56.2781 36.2393 56.5607 36.8232 56.5471 37.4336L56.5011 39.255C56.483 39.9632 55.8908 40.5195 55.1863 40.5049C54.478 40.487 53.9184 39.8984 53.9363 39.1902L53.9572 38.3656C53.2014 38.7197 52.5066 39.2128 51.884 39.8382C51.2954 40.4315 50.4155 40.6033 49.6433 40.2736C48.875 39.9459 48.3894 39.199 48.4015 38.3664C47.3515 38.8607 46.5847 39.5453 46.0926 40.086C45.8392 40.3643 45.4921 40.5054 45.1436 40.5054Z" fill="#FE9901"/>
  </g>
</svg>