<svg xmlns="http://www.w3.org/2000/svg" width="101" height="101" viewBox="0 0 101 101" fill="none">
  <g opacity="0.7">
    <path d="M47.1445 47.6572H54.5273V64.4541H47.1445V47.6572Z" fill="url(#paint0_linear_2552_11831)"/>
    <path d="M42.4961 71.6416C42.4961 67.0322 46.2266 63.2627 50.8359 63.2627C55.4453 63.2627 59.1758 67.0322 59.1758 71.6416H42.4961Z" fill="url(#paint1_linear_2552_11831)"/>
    <path d="M39.1172 71.6416H62.5547C64.7031 71.6416 66.4609 73.3994 66.4609 75.5479V82.3838H35.2109V75.5479C35.2109 73.3994 36.9688 71.6416 39.1172 71.6416Z" fill="url(#paint2_linear_2552_11831)"/>
    <path d="M32.7695 82.3838H68.9023C71.8711 82.3838 74.2734 84.7861 74.2734 87.7549C74.2734 90.7236 71.8711 93.126 68.9023 93.126H32.7695C29.8008 93.126 27.3984 90.7236 27.3984 87.7549C27.3984 84.7861 29.8008 82.3838 32.7695 82.3838Z" fill="url(#paint3_linear_2552_11831)"/>
    <path d="M58.7461 69.9615C58.2578 69.9615 57.8281 69.5904 57.7695 69.0825C57.7109 68.5357 58.1015 68.0669 58.6484 68.0083C58.7656 67.9888 66.0117 67.1685 72.9257 61.6607C82.0859 54.356 86.5586 42.0708 85.8164 26.1724C85.7968 25.6255 86.207 25.1763 86.7539 25.1568C87.2812 25.1177 87.75 25.5474 87.7695 26.0943C88.1796 35.3325 86.9492 43.3794 84.0781 50.02C81.7539 55.3716 78.3945 59.8247 74.0585 63.2622C66.6757 69.1021 59.1562 69.9419 58.8437 69.9615C58.8242 69.9615 58.7851 69.9615 58.7461 69.9615Z" fill="url(#paint4_linear_2552_11831)"/>
    <path d="M94.332 37.5008C90.8945 40.3523 86.0312 40.1375 86.0312 40.1375C86.0312 40.1375 86.7344 35.3133 90.1719 32.4617C93.6094 29.6101 98.4727 29.825 98.4727 29.825C98.4727 29.825 97.7695 34.6492 94.332 37.5008Z" fill="url(#paint5_linear_2552_11831)"/>
    <path d="M84.0586 31.6416C86.6172 35.2939 86.0117 40.1377 86.0117 40.1377C86.0117 40.1377 81.2656 39.0439 78.707 35.3916C76.1484 31.7393 76.7539 26.8955 76.7539 26.8955C76.7539 26.8955 81.5 27.9893 84.0586 31.6416Z" fill="url(#paint6_linear_2552_11831)"/>
    <path d="M81.4605 42.208C83.7066 46.0752 82.691 50.8408 82.691 50.8408C82.691 50.8408 78.0425 49.3369 75.816 45.4893C73.5699 41.6221 74.5855 36.8564 74.5855 36.8564C74.5855 36.8564 79.2339 38.3408 81.4605 42.208Z" fill="url(#paint7_linear_2552_11831)"/>
    <path d="M77.1643 52.1299C78.0627 56.5049 75.5822 60.7041 75.5822 60.7041C75.5822 60.7041 71.6565 57.8135 70.7776 53.4385C69.8986 49.0635 72.3596 44.8643 72.3596 44.8643C72.3596 44.8643 76.2658 47.7549 77.1643 52.1299Z" fill="url(#paint8_linear_2552_11831)"/>
    <path d="M70.3086 60.001C69.3907 64.376 65.4453 67.2471 65.4453 67.2471C65.4453 67.2471 62.9844 63.0283 63.9024 58.6729C64.8203 54.3174 68.7656 51.4268 68.7656 51.4268C68.7656 51.4268 71.2266 55.626 70.3086 60.001Z" fill="url(#paint9_linear_2552_11831)"/>
    <path d="M91.1875 48.9654C87.5156 51.485 82.6719 50.8404 82.6719 50.8404C82.6719 50.8404 83.8047 46.0943 87.4961 43.5748C91.1875 41.0553 96.0117 41.6998 96.0117 41.6998C96.0117 41.6998 94.8789 46.4459 91.1875 48.9654Z" fill="url(#paint10_linear_2552_11831)"/>
    <path d="M84.3125 60.7819C80.1523 62.403 75.6016 60.6843 75.6016 60.6843C75.6016 60.6843 77.7891 56.3288 81.9492 54.7077C86.1094 53.0866 90.6602 54.8054 90.6602 54.8054C90.6602 54.8054 88.4727 59.1609 84.3125 60.7819Z" fill="url(#paint11_linear_2552_11831)"/>
    <path d="M73.4336 70.6848C68.9609 70.5676 65.4453 67.2083 65.4453 67.2083C65.4453 67.2083 69.1563 64.0442 73.6094 64.1614C78.0625 64.2786 81.5977 67.6379 81.5977 67.6379C81.5977 67.6379 77.8867 70.802 73.4336 70.6848Z" fill="url(#paint12_linear_2552_11831)"/>
    <path d="M90.1523 23.7705C90.1523 28.2432 86.8906 31.8564 86.8906 31.8564C86.8906 31.8564 83.6289 28.2432 83.6289 23.7705C83.6289 19.2979 86.8711 15.6846 86.8711 15.6846C86.8711 15.6846 90.1523 19.2979 90.1523 23.7705Z" fill="url(#paint13_linear_2552_11831)"/>
    <path d="M42.9253 69.9615C43.4136 69.9615 43.8433 69.5904 43.9019 69.0825C43.9605 68.5357 43.5699 68.0669 43.023 68.0083C42.9058 67.9888 35.6597 67.1685 28.7456 61.6607C19.5855 54.356 15.1128 42.0708 15.855 26.1724C15.8746 25.6255 15.4644 25.1763 14.9175 25.1568C14.3902 25.1177 13.9214 25.5474 13.9019 26.0943C13.4722 35.3325 14.7222 43.3794 17.5933 50.02C19.9175 55.3716 23.2769 59.8247 27.6128 63.2622C34.9956 69.1021 42.5152 69.9419 42.8277 69.9615H42.9253Z" fill="url(#paint14_linear_2552_11831)"/>
    <path d="M7.33984 37.5008C10.7773 40.3523 15.6602 40.1375 15.6602 40.1375C15.6602 40.1375 14.957 35.3133 11.5195 32.4617C8.08203 29.6101 3.19922 29.825 3.19922 29.825C3.19922 29.825 3.90234 34.6492 7.33984 37.5008Z" fill="url(#paint15_linear_2552_11831)"/>
    <path d="M17.6133 31.6416C15.0547 35.2939 15.6601 40.1377 15.6601 40.1377C15.6601 40.1377 20.4062 39.0439 22.9648 35.3916C25.5234 31.7393 24.918 26.8955 24.918 26.8955C24.918 26.8955 20.1719 27.9893 17.6133 31.6416Z" fill="url(#paint16_linear_2552_11831)"/>
    <path d="M20.2114 42.208C17.9848 46.0752 18.9809 50.8408 18.9809 50.8408C18.9809 50.8408 23.6294 49.3369 25.8559 45.4893C28.0825 41.6416 27.0864 36.8564 27.0864 36.8564C27.0864 36.8564 22.4379 38.3408 20.2114 42.208Z" fill="url(#paint17_linear_2552_11831)"/>
    <path d="M24.5076 52.1299C23.6092 56.5049 26.0896 60.7041 26.0896 60.7041C26.0896 60.7041 30.0154 57.8135 30.9139 53.4385C31.8123 49.0635 29.3318 44.8643 29.3318 44.8643C29.3318 44.8643 25.406 47.7549 24.5076 52.1299Z" fill="url(#paint18_linear_2552_11831)"/>
    <path d="M31.3633 60.001C32.2813 64.376 36.2266 67.2471 36.2266 67.2471C36.2266 67.2471 38.6875 63.0283 37.7696 58.6729C36.8516 54.3174 32.9063 51.4268 32.9063 51.4268C32.9063 51.4268 30.4453 55.626 31.3633 60.001Z" fill="url(#paint19_linear_2552_11831)"/>
    <path d="M10.4844 48.9654C14.1562 51.485 19 50.8404 19 50.8404C19 50.8404 17.8672 46.0943 14.1758 43.5748C10.4844 41.0553 5.66016 41.6998 5.66016 41.6998C5.66016 41.6998 6.79297 46.4459 10.4844 48.9654Z" fill="url(#paint20_linear_2552_11831)"/>
    <path d="M17.3594 60.7819C21.5195 62.403 26.0703 60.6843 26.0703 60.6843C26.0703 60.6843 23.8828 56.3288 19.7422 54.7077C15.582 53.0866 11.0312 54.8054 11.0312 54.8054C11.0312 54.8054 13.1992 59.1609 17.3594 60.7819Z" fill="url(#paint21_linear_2552_11831)"/>
    <path d="M28.2383 70.6848C32.7109 70.5676 36.2266 67.2083 36.2266 67.2083C36.2266 67.2083 32.5156 64.0442 28.0625 64.1614C23.6094 64.2786 20.0742 67.6379 20.0742 67.6379C20.0742 67.6379 23.7852 70.802 28.2383 70.6848Z" fill="url(#paint22_linear_2552_11831)"/>
    <path d="M11.5195 23.7705C11.5195 28.2432 14.7813 31.8564 14.7813 31.8564C14.7813 31.8564 18.043 28.2432 18.043 23.7705C18.043 19.2979 14.7813 15.6846 14.7813 15.6846C14.7813 15.6846 11.5195 19.2979 11.5195 23.7705Z" fill="url(#paint23_linear_2552_11831)"/>
    <path d="M55.6792 11.0942L60.1324 19.5903L69.605 21.1919C73.9605 21.9341 75.6988 27.2661 72.6128 30.4106L65.8941 37.2856L67.2808 46.7778C67.9253 51.1528 63.3941 54.4341 59.4292 52.481L50.8355 48.2427L42.2417 52.5005C38.2769 54.4536 33.7456 51.1724 34.3902 46.7974L35.7769 37.3052L29.0581 30.4302C25.9722 27.2661 27.7105 21.9536 32.0659 21.2114L41.5386 19.6099L45.9917 11.1138C48.0425 7.18799 53.6284 7.18799 55.6792 11.0942Z" fill="url(#paint24_linear_2552_11831)"/>
    <path d="M50.8359 44.6299C57.5777 44.6299 63.043 39.1646 63.043 32.4229C63.043 25.6811 57.5777 20.2158 50.8359 20.2158C44.0942 20.2158 38.6289 25.6811 38.6289 32.4229C38.6289 39.1646 44.0942 44.6299 50.8359 44.6299Z" fill="url(#paint25_linear_2552_11831)"/>
    <path d="M52.3786 26.2119L53.8044 28.9268L56.8122 29.4346C58.199 29.6689 58.7458 31.3682 57.7693 32.3643L55.6208 34.5518L56.0701 37.5791C56.2654 38.9658 54.8396 40.0205 53.5701 39.3955L50.8357 38.0479L48.1013 39.3955C46.8513 40.0205 45.406 38.9658 45.6013 37.5791L46.0505 34.5518L43.9216 32.3643C42.9451 31.3682 43.4919 29.6689 44.8786 29.4346L47.8865 28.9268L49.3122 26.2119C49.9372 24.9619 51.7341 24.9619 52.3786 26.2119Z" fill="url(#paint26_linear_2552_11831)"/>
  </g>
  <defs>
    <linearGradient id="paint0_linear_2552_11831" x1="50.8369" y1="64.4492" x2="50.8369" y2="47.6562" gradientUnits="userSpaceOnUse">
      <stop stop-color="#FCD34F"/>
      <stop offset="1" stop-color="#FF6A00"/>
    </linearGradient>
    <linearGradient id="paint1_linear_2552_11831" x1="50.8359" y1="63.2559" x2="50.8359" y2="71.6426" gradientUnits="userSpaceOnUse">
      <stop stop-color="#FCD34F"/>
      <stop offset="1" stop-color="#FF6A00"/>
    </linearGradient>
    <linearGradient id="paint2_linear_2552_11831" x1="50.8359" y1="82.3848" x2="50.8359" y2="71.6426" gradientUnits="userSpaceOnUse">
      <stop stop-color="#3D5969"/>
      <stop offset="1" stop-color="#698999"/>
    </linearGradient>
    <linearGradient id="paint3_linear_2552_11831" x1="50.8359" y1="93.127" x2="50.8359" y2="82.3848" gradientUnits="userSpaceOnUse">
      <stop stop-color="#FF9900"/>
      <stop offset="1" stop-color="#FCD34F"/>
    </linearGradient>
    <linearGradient id="paint4_linear_2552_11831" x1="72.8166" y1="25.1427" x2="72.8166" y2="69.9624" gradientUnits="userSpaceOnUse">
      <stop stop-color="#FF9900"/>
      <stop offset="1" stop-color="#FCD34F"/>
    </linearGradient>
    <linearGradient id="paint5_linear_2552_11831" x1="92.209" y1="40.1879" x2="92.2122" y2="29.877" gradientUnits="userSpaceOnUse">
      <stop stop-color="#FF9900"/>
      <stop offset="1" stop-color="#FCD34F"/>
    </linearGradient>
    <linearGradient id="paint6_linear_2552_11831" x1="81.3763" y1="40.2264" x2="81.3788" y2="26.9859" gradientUnits="userSpaceOnUse">
      <stop stop-color="#FF9900"/>
      <stop offset="1" stop-color="#FCD34F"/>
    </linearGradient>
    <linearGradient id="paint7_linear_2552_11831" x1="78.3321" y1="50.7118" x2="78.8466" y2="37.0506" gradientUnits="userSpaceOnUse">
      <stop stop-color="#FF9900"/>
      <stop offset="1" stop-color="#FCD34F"/>
    </linearGradient>
    <linearGradient id="paint8_linear_2552_11831" x1="73.9708" y1="60.6579" x2="73.967" y2="44.8129" gradientUnits="userSpaceOnUse">
      <stop stop-color="#FF9900"/>
      <stop offset="1" stop-color="#FCD34F"/>
    </linearGradient>
    <linearGradient id="paint9_linear_2552_11831" x1="67.1561" y1="67.1921" x2="67.151" y2="51.3659" gradientUnits="userSpaceOnUse">
      <stop stop-color="#FF9900"/>
      <stop offset="1" stop-color="#FCD34F"/>
    </linearGradient>
    <linearGradient id="paint10_linear_2552_11831" x1="89.2025" y1="51.0798" x2="89.5674" y2="41.3924" gradientUnits="userSpaceOnUse">
      <stop stop-color="#FF9900"/>
      <stop offset="1" stop-color="#FCD34F"/>
    </linearGradient>
    <linearGradient id="paint11_linear_2552_11831" x1="83.0422" y1="61.4121" x2="83.0446" y2="53.9342" gradientUnits="userSpaceOnUse">
      <stop stop-color="#FF9900"/>
      <stop offset="1" stop-color="#FCD34F"/>
    </linearGradient>
    <linearGradient id="paint12_linear_2552_11831" x1="73.5501" y1="70.7921" x2="73.5481" y2="64.2542" gradientUnits="userSpaceOnUse">
      <stop stop-color="#FF9900"/>
      <stop offset="1" stop-color="#FCD34F"/>
    </linearGradient>
    <linearGradient id="paint13_linear_2552_11831" x1="86.8809" y1="31.8496" x2="86.8809" y2="15.6816" gradientUnits="userSpaceOnUse">
      <stop stop-color="#FF9900"/>
      <stop offset="1" stop-color="#FCD34F"/>
    </linearGradient>
    <linearGradient id="paint14_linear_2552_11831" x1="28.8568" y1="25.1427" x2="28.8568" y2="69.9624" gradientUnits="userSpaceOnUse">
      <stop stop-color="#FF9900"/>
      <stop offset="1" stop-color="#FCD34F"/>
    </linearGradient>
    <linearGradient id="paint15_linear_2552_11831" x1="9.46322" y1="40.1866" x2="9.46035" y2="29.8756" gradientUnits="userSpaceOnUse">
      <stop stop-color="#FF9900"/>
      <stop offset="1" stop-color="#FCD34F"/>
    </linearGradient>
    <linearGradient id="paint16_linear_2552_11831" x1="20.2937" y1="40.2254" x2="20.2911" y2="26.9852" gradientUnits="userSpaceOnUse">
      <stop stop-color="#FF9900"/>
      <stop offset="1" stop-color="#FCD34F"/>
    </linearGradient>
    <linearGradient id="paint17_linear_2552_11831" x1="23.34" y1="50.7125" x2="22.8257" y2="37.0514" gradientUnits="userSpaceOnUse">
      <stop stop-color="#FF9900"/>
      <stop offset="1" stop-color="#FCD34F"/>
    </linearGradient>
    <linearGradient id="paint18_linear_2552_11831" x1="27.7038" y1="60.6589" x2="27.7077" y2="44.8141" gradientUnits="userSpaceOnUse">
      <stop stop-color="#FF9900"/>
      <stop offset="1" stop-color="#FCD34F"/>
    </linearGradient>
    <linearGradient id="paint19_linear_2552_11831" x1="34.5186" y1="67.1939" x2="34.5239" y2="51.3675" gradientUnits="userSpaceOnUse">
      <stop stop-color="#FF9900"/>
      <stop offset="1" stop-color="#FCD34F"/>
    </linearGradient>
    <linearGradient id="paint20_linear_2552_11831" x1="12.4691" y1="51.0809" x2="12.1041" y2="41.3934" gradientUnits="userSpaceOnUse">
      <stop stop-color="#FF9900"/>
      <stop offset="1" stop-color="#FCD34F"/>
    </linearGradient>
    <linearGradient id="paint21_linear_2552_11831" x1="18.6301" y1="61.4108" x2="18.6275" y2="53.933" gradientUnits="userSpaceOnUse">
      <stop stop-color="#FF9900"/>
      <stop offset="1" stop-color="#FCD34F"/>
    </linearGradient>
    <linearGradient id="paint22_linear_2552_11831" x1="28.1233" y1="70.7929" x2="28.1253" y2="64.255" gradientUnits="userSpaceOnUse">
      <stop stop-color="#FF9900"/>
      <stop offset="1" stop-color="#FCD34F"/>
    </linearGradient>
    <linearGradient id="paint23_linear_2552_11831" x1="14.791" y1="31.8496" x2="14.791" y2="15.6816" gradientUnits="userSpaceOnUse">
      <stop stop-color="#FF9900"/>
      <stop offset="1" stop-color="#FCD34F"/>
    </linearGradient>
    <linearGradient id="paint24_linear_2552_11831" x1="50.8349" y1="53.0831" x2="50.8349" y2="8.16299" gradientUnits="userSpaceOnUse">
      <stop stop-color="#FF9900"/>
      <stop offset="0.11" stop-color="#FFA200"/>
      <stop offset="0.37" stop-color="#FFB300"/>
      <stop offset="0.65" stop-color="#FFBD00"/>
      <stop offset="1" stop-color="#FFC100"/>
    </linearGradient>
    <linearGradient id="paint25_linear_2552_11831" x1="50.8359" y1="44.6289" x2="50.8359" y2="20.2148" gradientUnits="userSpaceOnUse">
      <stop stop-color="#FFE187"/>
      <stop offset="1" stop-color="#FFF8E0"/>
    </linearGradient>
    <linearGradient id="paint26_linear_2552_11831" x1="50.8353" y1="39.5754" x2="50.8353" y2="25.2686" gradientUnits="userSpaceOnUse">
      <stop stop-color="#FD7600"/>
      <stop offset="0.71" stop-color="#FDBF30"/>
    </linearGradient>
  </defs>
</svg>