<svg xmlns="http://www.w3.org/2000/svg" width="101" height="101" viewBox="0 0 101 101" fill="none">
  <g opacity="0.87" clip-path="url(#clip0_2552_11867)">
    <path d="M8.01965 28.4613C10.3931 25.8718 12.8802 23.5417 15.6187 21.3784C15.9407 21.1241 16.4044 21.4286 16.2966 21.8245C14.7616 27.4661 12.0798 33.0415 7.94562 37.1863C7.75988 34.2847 7.75715 31.3589 8.01965 28.4613Z" fill="#FF901D"/>
    <path d="M7.94609 37.1892C5.55918 34.3087 3.50801 31.3306 1.65996 28.1153C1.44863 27.7478 0.886524 27.8788 0.865039 28.3024C0.531641 34.8886 3.04805 42.5948 9.17891 45.703C8.56797 42.9022 8.12773 40.0521 7.94609 37.1892Z" fill="#FF901D"/>
    <path d="M9.17871 45.701C10.6809 42.6101 12.3623 39.7345 14.3332 36.9472C14.567 36.6166 15.0914 36.7681 15.1084 37.1728C15.3484 42.8621 14.3723 48.8762 11.6463 53.8703C10.6357 51.2121 9.7834 48.4816 9.17871 45.701Z" fill="#FF901D"/>
    <path d="M11.6469 53.8715C8.54753 51.8796 5.71628 49.7016 3.00046 47.2551C2.68718 46.9729 2.19577 47.2676 2.30182 47.6756C3.93796 53.9665 8.61686 60.4221 15.2782 61.5624C13.8934 59.0897 12.653 56.5231 11.6469 53.8715Z" fill="#FF901D"/>
    <path d="M15.2764 61.5609C15.8193 58.189 16.5959 54.9724 17.677 51.7566C17.8055 51.3742 18.3486 51.3668 18.4834 51.7473C20.374 57.0848 21.1398 63.1064 19.9992 68.6404C18.2652 66.3963 16.6611 64.0379 15.2764 61.5609Z" fill="#FF901D"/>
    <path d="M20.0005 68.6422C16.4675 67.6412 13.1296 66.3895 9.82394 64.8551C9.4421 64.6777 9.05929 65.1027 9.27941 65.4615C12.6782 71.0043 19.0415 75.8031 25.7437 74.9762C23.6862 73.0051 21.7421 70.8994 20.0005 68.6422Z" fill="#FF901D"/>
    <path d="M25.7427 74.9745C25.2606 71.5772 25.0558 68.2637 25.1505 64.8577C25.1616 64.454 25.6796 64.2885 25.9194 64.6135C29.3046 69.203 31.83 74.778 32.4343 80.4301C30.0804 78.7758 27.8202 76.9676 25.7427 74.9745Z" fill="#FF901D"/>
    <path d="M93.6522 28.4613C91.2788 25.8718 88.7917 23.5417 86.0532 21.3784C85.7311 21.1241 85.2675 21.4286 85.3753 21.8245C86.9102 27.4661 89.5921 33.0415 93.7263 37.1863C93.912 34.2847 93.9147 31.3589 93.6522 28.4613Z" fill="#FF901D"/>
    <path d="M93.726 37.1892C96.1129 34.3087 98.1641 31.3306 100.012 28.1153C100.223 27.7478 100.786 27.8788 100.807 28.3024C101.14 34.8886 98.624 42.5948 92.4932 45.703C93.1041 42.9022 93.5443 40.0521 93.726 37.1892Z" fill="#FF901D"/>
    <path d="M92.493 45.7C90.9909 42.6092 89.3094 39.7336 87.3385 36.9463C87.1048 36.6156 86.5803 36.7672 86.5634 37.1719C86.3233 42.8611 87.2995 48.8752 90.0255 53.8693C91.036 51.2111 91.8884 48.4806 92.493 45.7Z" fill="#FF901D"/>
    <path d="M90.0248 53.8715C93.1242 51.8796 95.9555 49.7016 98.6713 47.2551C98.9846 46.9729 99.476 47.2676 99.3699 47.6756C97.7338 53.9665 93.0549 60.4221 86.3936 61.5624C87.7783 59.0897 89.0187 56.5231 90.0248 53.8715Z" fill="#FF901D"/>
    <path d="M86.3955 61.5609C85.8525 58.189 85.076 54.9724 83.9949 51.7566C83.8664 51.3742 83.3232 51.3668 83.1885 51.7473C81.2978 57.0848 80.532 63.1064 81.6726 68.6404C83.4066 66.3963 85.0107 64.0379 86.3955 61.5609Z" fill="#FF901D"/>
    <path d="M81.6709 68.6422C85.2039 67.6412 88.5418 66.3895 91.8475 64.8551C92.2293 64.6777 92.6121 65.1027 92.392 65.4615C88.9932 71.0043 82.6299 75.8031 75.9277 74.9762C77.9852 73.0051 79.9293 70.8994 81.6709 68.6422Z" fill="#FF901D"/>
    <path d="M75.9299 74.9745C76.4119 71.5772 76.6168 68.2637 76.5221 64.8577C76.5109 64.454 75.993 64.2885 75.7531 64.6135C72.368 69.203 69.8426 74.778 69.2383 80.4301C71.5922 78.7758 73.8523 76.9676 75.9299 74.9745Z" fill="#FF901D"/>
    <path d="M40.6999 83.5302C37.995 82.1964 35.5226 80.7452 33.3509 79.2175C33.3503 79.2171 33.3499 79.2169 33.3493 79.2165C33.3489 79.2163 33.3487 79.2159 33.3483 79.2157C30.9247 77.5126 28.7396 75.7315 26.8528 73.9216C26.8524 73.9212 26.8521 73.9206 26.8517 73.9202C24.7339 71.8917 22.8573 69.8226 21.2737 67.77C21.2733 67.7694 21.2728 67.7689 21.2724 67.7683L21.272 67.7677C19.4857 65.4556 17.9421 63.1425 16.6843 60.8921C16.6837 60.8909 16.6829 60.8899 16.6823 60.8888C15.2558 58.3405 14.0696 55.829 13.1571 53.4235C13.1567 53.4226 13.1564 53.4218 13.156 53.421V53.4208C12.1138 50.6784 11.3073 48.0093 10.7587 45.4874C10.7587 45.487 10.7585 45.4866 10.7585 45.4866C10.1286 42.5989 9.72569 39.8183 9.56104 37.2224C9.56104 37.221 9.56065 37.2198 9.56065 37.2187C9.36925 34.229 9.39307 31.3794 9.63155 28.7491C9.63448 28.7173 9.63448 28.6857 9.63526 28.654C9.9501 24.5866 10.703 20.5095 11.8769 16.5335C12.1128 15.7341 11.656 14.8948 10.8566 14.6589C10.0575 14.4228 9.21788 14.8794 8.98194 15.6792C7.73565 19.9009 6.93897 24.2327 6.61417 28.5544C6.61202 28.5839 6.61261 28.6128 6.61202 28.6419C6.37335 31.3806 6.35089 34.3294 6.54835 37.412C6.54835 37.4126 6.54835 37.413 6.54835 37.4136C6.72257 40.1587 7.1462 43.0884 7.80772 46.1218C7.80831 46.1241 7.8085 46.1267 7.80889 46.129C8.38917 48.797 9.23878 51.6112 10.3343 54.4931C10.3345 54.4935 10.3345 54.4939 10.3347 54.4942C11.3001 57.0388 12.5497 59.6866 14.0489 62.3642C14.0491 62.3646 14.0493 62.3649 14.0495 62.3653C14.0501 62.3663 14.0505 62.3671 14.0511 62.3679L14.0513 62.3681C15.3816 64.747 17.0071 67.1845 18.8833 69.613C18.8841 69.614 18.8849 69.6146 18.8855 69.6155C20.5595 71.7849 22.5358 73.9653 24.7599 76.096C24.7605 76.0966 24.7608 76.0972 24.7614 76.0978C26.7585 78.014 29.0638 79.8939 31.6134 81.6854C31.6138 81.6856 31.614 81.6858 31.6144 81.686C33.9128 83.3034 36.5206 84.8347 39.3649 86.2374C39.5798 86.3433 39.8073 86.3935 40.0314 86.3935C40.5878 86.3935 41.1233 86.0843 41.386 85.5515C41.7546 84.8038 41.4474 83.8989 40.6999 83.5302Z" fill="#F7BC14"/>
    <path d="M95.0601 28.642C95.0595 28.6129 95.0601 28.5842 95.058 28.5549C94.7332 24.2325 93.9365 19.9004 92.6902 15.6795C92.4543 14.8803 91.6152 14.4245 90.8154 14.6594C90.016 14.8954 89.5593 15.7348 89.7953 16.5342C90.9689 20.5092 91.7218 24.5862 92.0369 28.654C92.0379 28.6858 92.0379 28.7176 92.0408 28.7497C92.2793 31.379 92.3031 34.2288 92.1117 37.2196C92.1117 37.2202 92.1117 37.2207 92.1117 37.2211C92.1117 37.2217 92.1115 37.2221 92.1115 37.2227C91.9468 39.8174 91.5439 42.5979 90.9138 45.487L90.9136 45.4877C90.3654 48.0096 89.5588 50.6788 88.5164 53.4209C88.5162 53.4213 88.5162 53.4215 88.516 53.4219C88.5158 53.4227 88.5154 53.4233 88.515 53.4239C87.6027 55.8291 86.4162 58.3414 84.9884 60.8916L84.9879 60.8924C83.7302 63.1422 82.1867 65.4553 80.4 67.768C80.3996 67.7686 80.3992 67.7692 80.3988 67.7698L80.3984 67.7702C78.8154 69.8219 76.9384 71.8911 74.8205 73.9204C74.8201 73.9207 74.8197 73.9213 74.8193 73.9217C72.9334 75.7311 70.7478 77.5123 68.3236 79.2159C68.323 79.2163 68.3224 79.2168 68.3216 79.2174L68.3211 79.2176C66.1494 80.7457 63.6769 82.1967 60.972 83.5303C60.2244 83.8989 59.9172 84.8037 60.2859 85.5512C60.5486 86.0844 61.084 86.3934 61.6406 86.3934C61.8646 86.3934 62.0922 86.3432 62.3068 86.2373C65.1508 84.835 67.7582 83.3039 70.0566 81.6868C70.0574 81.6862 70.0582 81.686 70.059 81.6854C72.609 79.8932 74.9142 78.0133 76.9107 76.0977C76.9113 76.0971 76.9117 76.0965 76.9123 76.0959C79.1373 73.9639 81.1142 71.783 82.7879 69.6139L82.7883 69.6135L82.7888 69.6129C84.666 67.1829 86.2925 64.7444 87.6226 62.3653C87.6236 62.3637 87.6242 62.3622 87.625 62.3606C89.1238 59.6832 90.3728 57.0366 91.3371 54.4944C91.3371 54.4944 91.3373 54.4942 91.3373 54.4938C91.3373 54.4938 91.3375 54.4936 91.3375 54.4932C92.4324 51.6129 93.2814 48.8004 93.8617 46.1336C93.8619 46.1331 93.8621 46.1327 93.8623 46.1321C94.525 43.0936 94.9494 40.1604 95.1236 37.4135C95.1238 37.4114 95.1236 37.4094 95.1236 37.4075C95.3211 34.3254 95.2986 31.3782 95.0601 28.642Z" fill="#F7BC14"/>
    <path d="M42.2605 58.4604C37.9098 58.4605 33.6691 56.9189 30.2947 54.0475C26.1318 50.5049 23.7441 45.3389 23.7441 39.8742V34.7711C23.7441 34.1813 23.9742 33.6266 24.3918 33.21C24.808 32.7949 25.3607 32.5664 25.9482 32.5664C25.9502 32.5664 25.9521 32.5664 25.9541 32.5664L39.315 32.5957C40.1484 32.5975 40.8227 33.2746 40.8209 34.1082C40.8189 34.9404 40.1436 35.6141 39.3119 35.6141C39.3107 35.6141 39.3096 35.6141 39.3084 35.6141L26.7625 35.5865L26.7623 39.874C26.7623 44.4522 28.7627 48.7803 32.2506 51.7484C35.7117 54.6938 40.2619 55.9678 44.732 55.2426C44.8871 55.2174 45.0432 55.191 45.2008 55.1635C46.0227 55.0211 46.8039 55.5688 46.9477 56.3897C47.0914 57.2107 46.5424 57.9928 45.7215 58.1365C45.5514 58.1662 45.3824 58.1949 45.215 58.2221C44.2309 58.3818 43.2426 58.4604 42.2605 58.4604Z" fill="#FFB125"/>
    <path d="M59.4123 58.4602C58.4299 58.4602 57.4424 58.3816 56.4576 58.2221C56.2903 58.1949 56.1213 58.1662 55.9512 58.1365C55.1301 57.9928 54.5813 57.2105 54.725 56.3897C54.8688 55.5686 55.6518 55.0207 56.4719 55.1635C56.6293 55.1912 56.7856 55.2176 56.9406 55.2426C61.4117 55.9672 65.961 54.6938 69.4221 51.7484C72.91 48.7805 74.9104 44.4523 74.9104 39.874V35.5865L62.3645 35.6141C62.3633 35.6141 62.3621 35.6141 62.361 35.6141C61.5291 35.6141 60.8537 34.9406 60.852 34.1082C60.85 33.2746 61.5242 32.5975 62.3578 32.5957L75.7194 32.5664C75.7213 32.5664 75.7233 32.5664 75.7252 32.5664C76.3123 32.5664 76.8649 32.7947 77.2813 33.21C77.6988 33.6268 77.9289 34.1811 77.9289 34.7711V39.8742C77.9289 45.3389 75.5414 50.5049 71.3783 54.0475C68.0039 56.9186 63.7629 58.4602 59.4123 58.4602Z" fill="#FFB125"/>
    <path d="M40.9131 80.3313H60.7586C52.5381 69.9066 53.3959 54.8828 53.3959 54.8828H50.8359H48.276C48.276 54.8828 49.1338 69.9068 40.9131 80.3313Z" fill="#FED130"/>
    <path d="M53.3955 54.8828H50.8356H48.2756C48.2756 54.8828 48.4084 57.2154 48.0668 60.6799C47.4157 67.2836 49.0537 73.9453 52.9186 79.3393C53.1584 79.674 53.4069 80.0049 53.6641 80.3311H60.7584C52.5377 69.9066 53.3955 54.8828 53.3955 54.8828Z" fill="#F7BC14"/>
    <path d="M35.8662 28.2422V41.4084C35.8662 49.1979 39.5684 56.5236 45.8397 61.1439C48.8111 63.333 52.8615 63.333 55.833 61.1439C62.1043 56.5238 65.8064 49.1979 65.8064 41.4084V28.2422H35.8662Z" fill="#FED130"/>
    <path d="M58.6777 28.2422V41.4084C58.6777 49.1979 54.9756 56.5236 48.7043 61.1439C48.2494 61.4791 47.7691 61.7623 47.2715 61.9947C50.025 63.2812 53.3154 62.998 55.832 61.1439C62.1033 56.5238 65.8055 49.1979 65.8055 41.4084V28.2422H58.6777Z" fill="#F7BC14"/>
    <path d="M66.8787 30.2986H34.7936C34.31 30.2986 33.918 29.9066 33.918 29.423V25.7945C33.918 25.3109 34.31 24.9189 34.7936 24.9189H66.8787C67.3623 24.9189 67.7543 25.3109 67.7543 25.7945V29.423C67.7541 29.9066 67.3621 30.2986 66.8787 30.2986Z" fill="#FFB125"/>
    <path d="M66.8783 24.9189H60.626V30.2984H66.8783C67.3619 30.2984 67.7537 29.9064 67.7537 29.4229V25.7943C67.7537 25.3109 67.3617 24.9189 66.8783 24.9189Z" fill="#FF901D"/>
    <path d="M67.8602 86.6937H33.9461C33.4545 86.6937 33.1133 86.2041 33.2836 85.743L35.8022 78.9187C35.9045 78.6412 36.169 78.457 36.4647 78.457H65.3416C65.6373 78.457 65.9018 78.6412 66.0041 78.9187L68.5227 85.743C68.693 86.2041 68.3518 86.6937 67.8602 86.6937Z" fill="#FFB125"/>
    <path d="M68.5232 85.743L66.0047 78.9187C65.9021 78.6412 65.6379 78.457 65.342 78.457H58.4541L61.4939 86.6937H67.8605C68.3522 86.6937 68.6934 86.2041 68.5232 85.743Z" fill="#FF901D"/>
  </g>
  <defs>
    <clipPath id="clip0_2552_11867">
      <rect width="100" height="100" fill="white" transform="translate(0.835938 0.645508)"/>
    </clipPath>
  </defs>
</svg>