<svg width="36" height="47" viewBox="0 0 36 47" fill="none" xmlns="http://www.w3.org/2000/svg">
<circle cx="23.0841" cy="29.9747" r="12.9239" fill="url(#paint0_linear_4312_1609)"/>
<path d="M36.0075 29.6933C36.0075 31.5659 35.6589 33.4684 34.9616 35.4007C34.2644 37.3331 33.1986 39.126 31.7643 40.7794C30.3499 42.413 28.557 43.7277 26.3856 44.7238C24.2142 45.7199 21.6643 46.2179 18.7358 46.2179C14.7715 46.2179 11.3849 45.2517 8.57606 43.3194C5.7871 41.3671 3.65553 38.6877 2.18137 35.2812C0.727122 31.8747 0 27.9602 0 23.5377C0 19.0952 0.727122 15.1708 2.18137 11.7643C3.65553 8.35774 5.7871 5.6883 8.57606 3.75595C11.3849 1.8236 14.7715 0.857422 18.7358 0.857422C22.0228 0.857422 24.8317 1.48494 27.1625 2.73997C29.4933 3.995 31.3559 5.60862 32.7504 7.58081C34.1449 9.55301 35.0812 11.6148 35.5593 13.7663C35.8581 15.0214 36.0075 16.2166 36.0075 17.3521H28.0888C28.0888 16.7744 28.049 16.1768 27.9693 15.5592C27.7502 14.0452 27.2422 12.6707 26.4453 11.4356C25.6684 10.1805 24.6325 9.19443 23.3376 8.47726C22.0428 7.74018 20.5088 7.37164 18.7358 7.37164C16.6242 7.37164 14.7616 7.95931 13.148 9.13466C11.5543 10.31 10.2992 12.093 9.38286 14.4835C8.46649 16.874 8.00831 19.8921 8.00831 23.5377C8.00831 27.1434 8.46649 30.1515 9.38286 32.5619C10.2992 34.9724 11.5543 36.7753 13.148 37.9705C14.7616 39.1658 16.6242 39.7634 18.7358 39.7634C20.2499 39.7634 21.5846 39.4845 22.74 38.9268C23.8954 38.369 24.8716 37.6219 25.6684 36.6856C26.4653 35.7294 27.0629 34.6537 27.4613 33.4584C27.8797 32.2631 28.0888 31.0081 28.0888 29.6933H36.0075Z" fill="#101010"/>
<defs>
<linearGradient id="paint0_linear_4312_1609" x1="12.5163" y1="20.356" x2="19.3251" y2="36.9414" gradientUnits="userSpaceOnUse">
<stop stop-color="#FF4A23"/>
<stop offset="1"/>
</linearGradient>
</defs>
</svg>
