<svg width="162" height="47" viewBox="0 0 162 47" fill="none" xmlns="http://www.w3.org/2000/svg">
<circle cx="23.0841" cy="30.4483" r="12.9239" fill="url(#paint0_linear_4315_144)"/>
<path d="M36.0075 30.1669C36.0075 32.0395 35.6589 33.942 34.9616 35.8743C34.2644 37.8067 33.1986 39.5996 31.7643 41.2531C30.3499 42.8866 28.557 44.2014 26.3856 45.1974C24.2142 46.1935 21.6643 46.6915 18.7358 46.6915C14.7715 46.6915 11.3849 45.7253 8.57606 43.793C5.7871 41.8407 3.65553 39.1613 2.18137 35.7548C0.727122 32.3483 0 28.4338 0 24.0113C0 19.5689 0.727122 15.6444 2.18137 12.2379C3.65553 8.83137 5.7871 6.16193 8.57606 4.22958C11.3849 2.29723 14.7715 1.33105 18.7358 1.33105C22.0228 1.33105 24.8317 1.95857 27.1625 3.2136C29.4933 4.46863 31.3559 6.08225 32.7504 8.05445C34.1449 10.0266 35.0812 12.0885 35.5593 14.24C35.8581 15.495 36.0075 16.6903 36.0075 17.8258H28.0888C28.0888 17.2481 28.049 16.6504 27.9693 16.0329C27.7502 14.5189 27.2422 13.1443 26.4453 11.9092C25.6684 10.6542 24.6325 9.66806 23.3376 8.9509C22.0428 8.21381 20.5088 7.84527 18.7358 7.84527C16.6242 7.84527 14.7616 8.43294 13.148 9.60829C11.5543 10.7836 10.2992 12.5666 9.38286 14.9571C8.46649 17.3477 8.00831 20.3657 8.00831 24.0113C8.00831 27.617 8.46649 30.6251 9.38286 33.0356C10.2992 35.446 11.5543 37.2489 13.148 38.4442C14.7616 39.6394 16.6242 40.2371 18.7358 40.2371C20.2499 40.2371 21.5846 39.9582 22.74 39.4004C23.8954 38.8426 24.8716 38.0955 25.6684 37.1593C26.4653 36.203 27.0629 35.1273 27.4613 33.932C27.8797 32.7368 28.0888 31.4817 28.0888 30.1669H36.0075Z" fill="white"/>
<path d="M73.3853 16.67C73.3853 17.6531 73.2023 18.6519 72.8362 19.6663C72.4702 20.6808 71.9107 21.622 71.1577 22.49C70.4152 23.3476 69.4739 24.0378 68.334 24.5608C67.194 25.0837 65.8554 25.3451 64.318 25.3451C62.2369 25.3451 60.459 24.8379 58.9844 23.8235C57.5202 22.7985 56.4012 21.3919 55.6273 19.6036C54.8638 17.8152 54.4821 15.7602 54.4821 13.4385C54.4821 11.1063 54.8638 9.04602 55.6273 7.25767C56.4012 5.46932 57.5202 4.06792 58.9844 3.05348C60.459 2.03903 62.2369 1.53181 64.318 1.53181C66.0436 1.53181 67.5182 1.86124 68.7419 2.52011C69.9655 3.17897 70.9433 4.02609 71.6754 5.06145C72.4075 6.09681 72.899 7.17923 73.15 8.30872C73.3069 8.96759 73.3853 9.59508 73.3853 10.1912H69.2282C69.2282 9.88791 69.2072 9.57416 69.1654 9.24996C69.0504 8.45513 68.7837 7.73352 68.3654 7.08511C67.9575 6.42624 67.4137 5.90856 66.7339 5.53207C66.0541 5.14511 65.2488 4.95164 64.318 4.95164C63.2095 4.95164 62.2316 5.26015 61.3845 5.87719C60.5479 6.49422 59.889 7.43023 59.4079 8.68521C58.9268 9.9402 58.6863 11.5246 58.6863 13.4385C58.6863 15.3314 58.9268 16.9106 59.4079 18.176C59.889 19.4415 60.5479 20.3879 61.3845 21.0154C62.2316 21.6429 63.2095 21.9567 64.318 21.9567C65.1129 21.9567 65.8136 21.8103 66.4201 21.5174C67.0267 21.2246 67.5392 20.8324 67.9575 20.3409C68.3758 19.8389 68.6896 19.2741 68.8987 18.6466C69.1184 18.0192 69.2282 17.3603 69.2282 16.67H73.3853ZM76.8022 25V1.86124H85.7126C88.0447 1.86124 89.7965 2.39461 90.9678 3.46135C92.1391 4.52808 92.7248 6.09681 92.7248 8.16753C92.7248 9.38068 92.4947 10.4108 92.0345 11.2579C91.5744 12.105 91.0149 12.7587 90.356 13.2188C89.6971 13.679 89.0696 13.9405 88.4735 14.0032C89.0801 14.045 89.6658 14.2019 90.2305 14.4738C90.7952 14.7457 91.2554 15.1745 91.611 15.7602C91.977 16.3354 92.16 17.1145 92.16 18.0976C92.16 18.882 92.16 19.6663 92.16 20.4507C92.16 21.2246 92.16 22.0037 92.16 22.7881C92.16 23.2796 92.2019 23.7346 92.2855 24.1529C92.3692 24.5608 92.4738 24.8431 92.5993 25H88.4422C88.3376 24.8118 88.2434 24.5242 88.1598 24.1372C88.0866 23.7398 88.05 23.2901 88.05 22.7881C88.05 22.0769 88.05 21.3815 88.05 20.7017C88.05 20.0114 88.05 19.3055 88.05 18.5839C88.05 17.6322 87.7833 16.9106 87.2499 16.419C86.7166 15.9275 85.9113 15.6817 84.8341 15.6817H79.7357L80.8338 14.2856V25H76.8022ZM80.8338 13.9405L79.7357 12.3874H84.8655C85.5452 12.3874 86.157 12.2305 86.7009 11.9168C87.2447 11.5926 87.6735 11.1429 87.9872 10.5677C88.3114 9.99249 88.4735 9.31794 88.4735 8.54403C88.4735 7.41454 88.1493 6.56743 87.5009 6.00269C86.8525 5.43794 85.9322 5.15557 84.74 5.15557H79.6259L80.8338 3.69666V13.9405ZM98.6404 5.15557L100.507 3.10054V12.9835L99.5345 11.7442H108.194V15.0386H99.5345L100.507 13.815V23.7607L98.6404 21.7057H109.935V25H96.35V1.86124H109.935V5.15557H98.6404ZM128.792 5.15557H121.466L122.988 3.10054V25H118.846V3.10054L120.446 5.15557H113.058V1.86124H128.792V5.15557ZM131.954 25V1.86124H136.032V25H131.954ZM149.484 25.3451C148.082 25.3451 146.775 25.0837 145.562 24.5608C144.349 24.0378 143.282 23.2692 142.362 22.2547C141.452 21.2298 140.741 19.9801 140.228 18.5055C139.726 17.0204 139.475 15.3209 139.475 13.4071C139.475 11.4932 139.726 9.79901 140.228 8.32441C140.741 6.8498 141.452 5.6105 142.362 4.60652C143.272 3.59207 144.333 2.82862 145.546 2.31617C146.77 1.79326 148.082 1.53181 149.484 1.53181C150.906 1.53181 152.224 1.79326 153.437 2.31617C154.661 2.82862 155.727 3.59207 156.637 4.60652C157.547 5.6105 158.253 6.8498 158.755 8.32441C159.268 9.79901 159.524 11.4932 159.524 13.4071C159.524 15.3209 159.268 17.0204 158.755 18.5055C158.243 19.9801 157.526 21.2298 156.606 22.2547C155.696 23.2692 154.635 24.0378 153.421 24.5608C152.208 25.0837 150.896 25.3451 149.484 25.3451ZM149.484 21.941C150.572 21.941 151.555 21.6481 152.433 21.0625C153.312 20.4664 154.007 19.5408 154.519 18.2858C155.042 17.0309 155.304 15.4046 155.304 13.4071C155.304 11.3991 155.042 9.7781 154.519 8.54403C153.997 7.2995 153.296 6.38964 152.417 5.81444C151.539 5.23924 150.561 4.95164 149.484 4.95164C148.428 4.95164 147.455 5.23924 146.566 5.81444C145.688 6.38964 144.982 7.2995 144.448 8.54403C143.925 9.7781 143.664 11.3991 143.664 13.4071C143.664 15.4151 143.925 17.0465 144.448 18.3015C144.982 19.5565 145.688 20.4768 146.566 21.0625C147.455 21.6481 148.428 21.941 149.484 21.941Z" fill="white"/>
<path d="M60.65 43.096C60.0273 43.096 59.4544 42.9463 58.9315 42.6468C58.4086 42.3426 57.9903 41.8957 57.6765 41.3063C57.3628 40.7168 57.2059 39.9966 57.2059 39.1457C57.2059 38.3138 57.3652 37.6079 57.6837 37.0279C58.0022 36.4479 58.4229 36.0082 58.9458 35.7087C59.4687 35.4045 60.0368 35.2524 60.65 35.2524C61.2395 35.2524 61.7861 35.395 62.29 35.6802C62.7987 35.9654 63.2075 36.3624 63.5165 36.871C63.8255 37.3749 63.98 37.9573 63.98 38.618C63.98 38.637 63.98 38.6561 63.98 38.6751C63.98 38.6893 63.98 38.7036 63.98 38.7179L63.0815 38.7464C63.0815 38.7321 63.0815 38.7179 63.0815 38.7036C63.0815 38.6846 63.0815 38.6679 63.0815 38.6537C63.0815 38.2591 62.9817 37.9097 62.782 37.6055C62.5824 37.2965 62.3186 37.054 61.9906 36.8782C61.6673 36.6975 61.3227 36.6072 60.9566 36.6072C60.3434 36.6072 59.83 36.814 59.4164 37.2276C59.0028 37.6364 58.796 38.2758 58.796 39.1457C58.796 40.0109 59.0028 40.6526 59.4164 41.0709C59.8347 41.4845 60.3481 41.6913 60.9566 41.6913C61.3369 41.6913 61.6887 41.601 62.0119 41.4203C62.3352 41.2349 62.5943 40.983 62.7892 40.6645C62.9841 40.346 63.0815 39.9823 63.0815 39.5735L63.98 39.6092C63.98 40.2652 63.8302 40.857 63.5308 41.3847C63.236 41.9124 62.8367 42.3307 62.3328 42.6397C61.8337 42.9439 61.2727 43.096 60.65 43.096ZM63.0815 42.9463V31.8012H64.636V42.9463H63.0815ZM66.6421 42.9463V35.3736H68.1681V42.9463H66.6421ZM67.4123 33.8049C67.146 33.8049 66.9155 33.7336 66.7206 33.591C66.5304 33.4436 66.4354 33.2416 66.4354 32.9849C66.4354 32.7329 66.5304 32.5356 66.7206 32.393C66.9155 32.2457 67.146 32.172 67.4123 32.172C67.6737 32.172 67.8995 32.2457 68.0897 32.393C68.2846 32.5356 68.382 32.7329 68.382 32.9849C68.382 33.2416 68.2846 33.4436 68.0897 33.591C67.8995 33.7336 67.6737 33.8049 67.4123 33.8049ZM75.1978 42.3402C75.6257 42.3782 76.0012 42.459 76.3245 42.5826C76.6477 42.7015 76.8997 42.8774 77.0803 43.1103C77.2657 43.348 77.3584 43.6593 77.3584 44.0444C77.3584 44.477 77.2111 44.8525 76.9163 45.171C76.6263 45.4943 76.1914 45.7439 75.6114 45.9197C75.0315 46.1004 74.3113 46.1907 73.4509 46.1907C72.2196 46.1907 71.2808 46.0124 70.6343 45.6559C69.9878 45.2994 69.6645 44.8145 69.6645 44.2013C69.6645 44.0159 69.6859 43.8519 69.7287 43.7093C69.7715 43.5667 69.8238 43.4478 69.8856 43.3527L71.3259 43.5667C71.2927 43.6142 71.2594 43.6831 71.2261 43.7734C71.1928 43.8685 71.1762 43.9826 71.1762 44.1157C71.1762 44.4532 71.383 44.6933 71.7966 44.8359C72.2101 44.9785 72.783 45.0498 73.515 45.0498C74.0522 45.0498 74.4967 45.0118 74.8485 44.9357C75.205 44.8644 75.4712 44.7598 75.6471 44.622C75.823 44.4841 75.9109 44.3225 75.9109 44.1371C75.9109 43.8566 75.7897 43.6807 75.5472 43.6094C75.3048 43.5381 75.0125 43.4882 74.6702 43.4597L71.7966 43.2244C71.2974 43.1816 70.8886 43.0319 70.5701 42.7752C70.2564 42.5185 70.0995 42.1952 70.0995 41.8054C70.0995 41.563 70.1613 41.3372 70.2849 41.128C70.4085 40.9188 70.5511 40.7429 70.7127 40.6003C70.8791 40.4577 71.0217 40.3698 71.1405 40.3365L72.1531 40.8214C72.0438 40.8356 71.9106 40.9093 71.7538 41.0424C71.6017 41.1708 71.5256 41.3229 71.5256 41.4988C71.5256 41.6604 71.5921 41.7935 71.7253 41.8981C71.8631 42.0027 72.1293 42.0716 72.5239 42.1049L75.1978 42.3402ZM76.1462 35.3736H77.5509L76.9734 38.3328C76.8688 38.8842 76.6763 39.3834 76.3958 39.8302C76.1201 40.2723 75.7445 40.6217 75.2692 40.8784C74.7985 41.1351 74.2115 41.2635 73.5079 41.2635C72.7758 41.2635 72.146 41.1375 71.6183 40.8855C71.0906 40.6336 70.6842 40.2842 70.399 39.8374C70.1185 39.3857 69.9783 38.8723 69.9783 38.2971C69.9783 37.7124 70.1232 37.1895 70.4132 36.7284C70.708 36.2673 71.112 35.906 71.6254 35.6446C72.1436 35.3831 72.7354 35.2524 73.4009 35.2524C73.9619 35.2524 74.4586 35.3475 74.8912 35.5376C75.3286 35.7278 75.6756 35.9702 75.9323 36.2649C76.189 36.5597 76.3292 36.8663 76.353 37.1848L75.9109 37.2347L76.1462 35.3736ZM73.5008 40.0014C73.9143 40.0014 74.2709 39.9348 74.5704 39.8017C74.8698 39.6638 75.1004 39.4666 75.262 39.2099C75.4237 38.9484 75.5045 38.6347 75.5045 38.2686C75.5045 37.9073 75.4237 37.5983 75.262 37.3416C75.1004 37.0802 74.8698 36.8805 74.5704 36.7427C74.2709 36.6001 73.9167 36.5288 73.5079 36.5288C73.1133 36.5288 72.7639 36.6024 72.4597 36.7498C72.1602 36.8924 71.9249 37.0945 71.7538 37.3559C71.5826 37.6174 71.4971 37.9287 71.4971 38.29C71.4971 38.6513 71.5779 38.9603 71.7395 39.217C71.9011 39.4689 72.1317 39.6638 72.4312 39.8017C72.7307 39.9348 73.0872 40.0014 73.5008 40.0014ZM79.0371 42.9463V35.3736H80.5631V42.9463H79.0371ZM79.8072 33.8049C79.541 33.8049 79.3105 33.7336 79.1155 33.591C78.9254 33.4436 78.8303 33.2416 78.8303 32.9849C78.8303 32.7329 78.9254 32.5356 79.1155 32.393C79.3105 32.2457 79.541 32.172 79.8072 32.172C80.0687 32.172 80.2945 32.2457 80.4846 32.393C80.6795 32.5356 80.777 32.7329 80.777 32.9849C80.777 33.2416 80.6795 33.4436 80.4846 33.591C80.2945 33.7336 80.0687 33.8049 79.8072 33.8049ZM85.8601 43.0746C85.6081 43.0746 85.3562 43.0485 85.1042 42.9962C84.857 42.9439 84.6289 42.8488 84.4197 42.711C84.2153 42.5684 84.0513 42.3663 83.9277 42.1049C83.8041 41.8434 83.7423 41.5012 83.7423 41.0781C83.7423 40.9782 83.7423 40.8737 83.7423 40.7643C83.7423 40.655 83.7423 40.5433 83.7423 40.4292V36.6571H81.924V35.3736H82.8795C83.0839 35.3736 83.2432 35.3665 83.3572 35.3522C83.4761 35.3332 83.5617 35.2928 83.6139 35.231C83.671 35.1644 83.7066 35.0599 83.7209 34.9172C83.7352 34.7746 83.7423 34.5797 83.7423 34.3325V32.8708H85.2896V35.3736H87.6071V36.6571H85.2896V40.0156C85.2896 40.1107 85.2896 40.2058 85.2896 40.3008C85.2896 40.3959 85.2896 40.4839 85.2896 40.5647C85.2896 40.945 85.3348 41.2445 85.4251 41.4631C85.5202 41.6818 85.7341 41.7911 86.0669 41.7911C86.2095 41.7911 86.345 41.7792 86.4733 41.7555C86.6017 41.7317 86.6991 41.7056 86.7657 41.677V42.9392C86.6801 42.9724 86.5589 43.0033 86.402 43.0319C86.2451 43.0604 86.0645 43.0746 85.8601 43.0746ZM91.4861 43.096C90.9157 43.096 90.4142 43.0057 89.9816 42.8251C89.5537 42.6444 89.221 42.3853 88.9833 42.0478C88.7456 41.7103 88.6268 41.3039 88.6268 40.8285C88.6268 40.3199 88.7599 39.8992 89.0261 39.5664C89.297 39.2336 89.6678 38.9769 90.1384 38.7963C90.6138 38.6109 91.1534 38.4897 91.7571 38.4326C92.6555 38.3423 93.2878 38.2544 93.6538 38.1688C94.0246 38.0832 94.21 37.943 94.21 37.7481C94.21 37.7433 94.21 37.7386 94.21 37.7338C94.21 37.3488 94.046 37.0564 93.718 36.8568C93.39 36.6571 92.9217 36.5573 92.3133 36.5573C91.6715 36.5573 91.1747 36.6714 90.823 36.8996C90.476 37.123 90.3024 37.4795 90.3024 37.9691H88.7836C88.7836 37.3892 88.9334 36.8972 89.2329 36.4931C89.5371 36.089 89.9554 35.7824 90.4878 35.5733C91.0203 35.3593 91.6311 35.2524 92.3204 35.2524C92.9526 35.2524 93.5278 35.3498 94.046 35.5447C94.5689 35.7349 94.9849 36.0201 95.2939 36.4004C95.6028 36.7807 95.7573 37.2537 95.7573 37.8194C95.7573 37.9192 95.7573 38.0191 95.7573 38.1189C95.7573 38.214 95.7573 38.3114 95.7573 38.4112V41.4346C95.7573 41.6105 95.7645 41.7816 95.7787 41.948C95.793 42.1096 95.8191 42.2546 95.8572 42.383C95.9 42.5303 95.9499 42.6516 96.0069 42.7466C96.0687 42.8417 96.1186 42.9083 96.1567 42.9463H94.6164C94.5879 42.9178 94.5451 42.8583 94.4881 42.768C94.4358 42.6729 94.3883 42.5636 94.3455 42.44C94.3027 42.3212 94.2694 42.1857 94.2457 42.0336C94.2266 41.8767 94.2171 41.7079 94.2171 41.5273L94.5024 41.727C94.3597 42.0027 94.1435 42.2427 93.8535 42.4471C93.5682 42.6516 93.2236 42.8108 92.8195 42.9249C92.4202 43.039 91.9758 43.096 91.4861 43.096ZM91.807 41.8125C92.2491 41.8125 92.6508 41.7436 93.0121 41.6057C93.3781 41.4631 93.6705 41.2492 93.8891 40.964C94.1078 40.674 94.2171 40.3103 94.2171 39.873V38.618L94.5808 39.0958C94.2766 39.2146 93.9034 39.3121 93.4613 39.3881C93.0239 39.4594 92.5723 39.5189 92.1065 39.5664C91.4647 39.6234 90.9822 39.7351 90.659 39.9015C90.3357 40.0632 90.1741 40.3341 90.1741 40.7144C90.1741 41.0805 90.3072 41.3562 90.5734 41.5416C90.8444 41.7222 91.2556 41.8125 91.807 41.8125ZM99.2689 31.8012V42.9463H97.743V31.8012H99.2689ZM107.544 43.096C106.973 43.096 106.472 43.0057 106.039 42.8251C105.611 42.6444 105.279 42.3853 105.041 42.0478C104.803 41.7103 104.684 41.3039 104.684 40.8285C104.684 40.3199 104.818 39.8992 105.084 39.5664C105.355 39.2336 105.726 38.9769 106.196 38.7963C106.672 38.6109 107.211 38.4897 107.815 38.4326C108.713 38.3423 109.346 38.2544 109.712 38.1688C110.082 38.0832 110.268 37.943 110.268 37.7481C110.268 37.7433 110.268 37.7386 110.268 37.7338C110.268 37.3488 110.104 37.0564 109.776 36.8568C109.448 36.6571 108.979 36.5573 108.371 36.5573C107.729 36.5573 107.232 36.6714 106.881 36.8996C106.534 37.123 106.36 37.4795 106.36 37.9691H104.841C104.841 37.3892 104.991 36.8972 105.291 36.4931C105.595 36.089 106.013 35.7824 106.546 35.5733C107.078 35.3593 107.689 35.2524 108.378 35.2524C109.01 35.2524 109.586 35.3498 110.104 35.5447C110.627 35.7349 111.043 36.0201 111.352 36.4004C111.661 36.7807 111.815 37.2537 111.815 37.8194C111.815 37.9192 111.815 38.0191 111.815 38.1189C111.815 38.214 111.815 38.3114 111.815 38.4112V41.4346C111.815 41.6105 111.822 41.7816 111.836 41.948C111.851 42.1096 111.877 42.2546 111.915 42.383C111.958 42.5303 112.008 42.6516 112.065 42.7466C112.126 42.8417 112.176 42.9083 112.214 42.9463H110.674C110.646 42.9178 110.603 42.8583 110.546 42.768C110.494 42.6729 110.446 42.5636 110.403 42.44C110.36 42.3212 110.327 42.1857 110.303 42.0336C110.284 41.8767 110.275 41.7079 110.275 41.5273L110.56 41.727C110.417 42.0027 110.201 42.2427 109.911 42.4471C109.626 42.6516 109.281 42.8108 108.877 42.9249C108.478 43.039 108.033 43.096 107.544 43.096ZM107.865 41.8125C108.307 41.8125 108.709 41.7436 109.07 41.6057C109.436 41.4631 109.728 41.2492 109.947 40.964C110.166 40.674 110.275 40.3103 110.275 39.873V38.618L110.639 39.0958C110.334 39.2146 109.961 39.3121 109.519 39.3881C109.082 39.4594 108.63 39.5189 108.164 39.5664C107.522 39.6234 107.04 39.7351 106.717 39.9015C106.393 40.0632 106.232 40.3341 106.232 40.7144C106.232 41.0805 106.365 41.3562 106.631 41.5416C106.902 41.7222 107.313 41.8125 107.865 41.8125ZM118.664 42.3402C119.092 42.3782 119.467 42.459 119.79 42.5826C120.114 42.7015 120.366 42.8774 120.546 43.1103C120.732 43.348 120.824 43.6593 120.824 44.0444C120.824 44.477 120.677 44.8525 120.382 45.171C120.092 45.4943 119.657 45.7439 119.077 45.9197C118.497 46.1004 117.777 46.1907 116.917 46.1907C115.686 46.1907 114.747 46.0124 114.1 45.6559C113.454 45.2994 113.13 44.8145 113.13 44.2013C113.13 44.0159 113.152 43.8519 113.195 43.7093C113.237 43.5667 113.29 43.4478 113.352 43.3527L114.792 43.5667C114.759 43.6142 114.725 43.6831 114.692 43.7734C114.659 43.8685 114.642 43.9826 114.642 44.1157C114.642 44.4532 114.849 44.6933 115.263 44.8359C115.676 44.9785 116.249 45.0498 116.981 45.0498C117.518 45.0498 117.963 45.0118 118.314 44.9357C118.671 44.8644 118.937 44.7598 119.113 44.622C119.289 44.4841 119.377 44.3225 119.377 44.1371C119.377 43.8566 119.256 43.6807 119.013 43.6094C118.771 43.5381 118.478 43.4882 118.136 43.4597L115.263 43.2244C114.763 43.1816 114.355 43.0319 114.036 42.7752C113.722 42.5185 113.565 42.1952 113.565 41.8054C113.565 41.563 113.627 41.3372 113.751 41.128C113.874 40.9188 114.017 40.7429 114.179 40.6003C114.345 40.4577 114.488 40.3698 114.606 40.3365L115.619 40.8214C115.51 40.8356 115.377 40.9093 115.22 41.0424C115.068 41.1708 114.992 41.3229 114.992 41.4988C114.992 41.6604 115.058 41.7935 115.191 41.8981C115.329 42.0027 115.595 42.0716 115.99 42.1049L118.664 42.3402ZM119.612 35.3736H121.017L120.439 38.3328C120.335 38.8842 120.142 39.3834 119.862 39.8302C119.586 40.2723 119.21 40.6217 118.735 40.8784C118.264 41.1351 117.677 41.2635 116.974 41.2635C116.242 41.2635 115.612 41.1375 115.084 40.8855C114.557 40.6336 114.15 40.2842 113.865 39.8374C113.584 39.3857 113.444 38.8723 113.444 38.2971C113.444 37.7124 113.589 37.1895 113.879 36.7284C114.174 36.2673 114.578 35.906 115.091 35.6446C115.61 35.3831 116.201 35.2524 116.867 35.2524C117.428 35.2524 117.925 35.3475 118.357 35.5376C118.795 35.7278 119.142 35.9702 119.398 36.2649C119.655 36.5597 119.795 36.8663 119.819 37.1848L119.377 37.2347L119.612 35.3736ZM116.967 40.0014C117.38 40.0014 117.737 39.9348 118.036 39.8017C118.336 39.6638 118.566 39.4666 118.728 39.2099C118.89 38.9484 118.97 38.6347 118.97 38.2686C118.97 37.9073 118.89 37.5983 118.728 37.3416C118.566 37.0802 118.336 36.8805 118.036 36.7427C117.737 36.6001 117.383 36.5288 116.974 36.5288C116.579 36.5288 116.23 36.6024 115.926 36.7498C115.626 36.8924 115.391 37.0945 115.22 37.3559C115.049 37.6174 114.963 37.9287 114.963 38.29C114.963 38.6513 115.044 38.9603 115.205 39.217C115.367 39.4689 115.598 39.6638 115.897 39.8017C116.197 39.9348 116.553 40.0014 116.967 40.0014ZM122.696 39.7019V38.4968H128.273L128.059 38.8533C128.059 38.8248 128.059 38.7963 128.059 38.7678C128.059 38.7345 128.059 38.706 128.059 38.6822C128.059 38.2971 127.975 37.943 127.809 37.6197C127.643 37.2917 127.393 37.0303 127.06 36.8354C126.732 36.6357 126.321 36.5359 125.827 36.5359C125.332 36.5359 124.897 36.6428 124.522 36.8568C124.151 37.0659 123.861 37.3654 123.652 37.7552C123.448 38.1403 123.345 38.6038 123.345 39.1457C123.345 39.6971 123.445 40.1725 123.645 40.5718C123.844 40.9664 124.132 41.2706 124.508 41.4845C124.883 41.6984 125.332 41.8054 125.855 41.8054C126.221 41.8054 126.537 41.7697 126.804 41.6984C127.075 41.6224 127.296 41.5225 127.467 41.399C127.643 41.2754 127.776 41.1423 127.866 40.9996C127.956 40.8523 128.009 40.7073 128.023 40.5647H129.563C129.535 40.8737 129.432 41.1803 129.257 41.4845C129.085 41.784 128.841 42.0573 128.522 42.3045C128.208 42.547 127.823 42.7419 127.367 42.8892C126.915 43.0319 126.395 43.1032 125.805 43.1032C125.016 43.1032 124.325 42.9368 123.73 42.604C123.136 42.2713 122.673 41.8101 122.34 41.2207C122.007 40.6265 121.841 39.9467 121.841 39.1813C121.841 38.4017 122.01 37.7172 122.347 37.1277C122.685 36.5383 123.153 36.0795 123.752 35.7515C124.351 35.4188 125.038 35.2524 125.813 35.2524C126.602 35.2524 127.284 35.4188 127.859 35.7515C128.439 36.0843 128.886 36.543 129.2 37.1277C129.513 37.7124 129.67 38.3851 129.67 39.1457C129.67 39.236 129.668 39.3406 129.663 39.4594C129.658 39.5783 129.651 39.6591 129.642 39.7019H122.696ZM136.786 42.9463V39.4523C136.786 39.2479 136.786 39.0744 136.786 38.9318C136.786 38.7892 136.786 38.6561 136.786 38.5325C136.786 38.1617 136.729 37.836 136.614 37.5556C136.5 37.2703 136.313 37.0493 136.051 36.8924C135.79 36.7308 135.44 36.65 135.003 36.65C134.618 36.65 134.269 36.7451 133.955 36.9352C133.646 37.1254 133.399 37.3844 133.213 37.7124C133.033 38.0357 132.942 38.4041 132.942 38.8177L132.279 38.4897C132.279 37.8764 132.424 37.3274 132.714 36.8425C133.004 36.3529 133.391 35.9654 133.876 35.6802C134.366 35.395 134.901 35.2524 135.481 35.2524C136.08 35.2524 136.591 35.3689 137.014 35.6018C137.442 35.83 137.767 36.158 137.991 36.5858C138.219 37.0089 138.333 37.5152 138.333 38.1046C138.333 38.3233 138.333 38.5657 138.333 38.8319C138.333 39.0981 138.333 39.3548 138.333 39.602V42.9463H136.786ZM131.395 42.9463V35.3736H132.942V42.9463H131.395ZM143.953 43.096C143.192 43.096 142.51 42.9368 141.906 42.6183C141.307 42.295 140.834 41.8363 140.487 41.2421C140.145 40.6479 139.974 39.9491 139.974 39.1457C139.974 38.3423 140.145 37.6506 140.487 37.0707C140.834 36.486 141.307 36.0367 141.906 35.723C142.51 35.4093 143.192 35.2524 143.953 35.2524C144.528 35.2524 145.039 35.3403 145.486 35.5162C145.932 35.6874 146.31 35.9155 146.619 36.2008C146.928 36.486 147.164 36.7997 147.325 37.142C147.487 37.4843 147.568 37.8265 147.568 38.1688C147.568 38.1735 147.568 38.1807 147.568 38.1902C147.568 38.1997 147.568 38.2092 147.568 38.2187H146.035C146.035 38.1949 146.032 38.1688 146.028 38.1403C146.023 38.107 146.018 38.0761 146.013 38.0476C145.975 37.7671 145.866 37.5175 145.685 37.2989C145.505 37.0802 145.267 36.9067 144.972 36.7783C144.677 36.65 144.333 36.5858 143.938 36.5858C143.506 36.5858 143.106 36.6809 142.74 36.871C142.379 37.0564 142.089 37.3393 141.87 37.7196C141.652 38.0999 141.542 38.5752 141.542 39.1457C141.542 39.7161 141.649 40.1963 141.863 40.5861C142.082 40.9711 142.372 41.2635 142.733 41.4631C143.099 41.6628 143.501 41.7626 143.938 41.7626C144.409 41.7626 144.794 41.6913 145.093 41.5487C145.393 41.4013 145.619 41.2064 145.771 40.964C145.923 40.7168 146.011 40.4506 146.035 40.1654H147.568C147.568 40.5076 147.489 40.8546 147.332 41.2064C147.176 41.5534 146.945 41.8696 146.641 42.1548C146.337 42.44 145.959 42.6682 145.507 42.8393C145.06 43.0105 144.542 43.096 143.953 43.096ZM149.223 46.1693C149.019 46.1693 148.831 46.1574 148.66 46.1337C148.493 46.1146 148.391 46.0956 148.353 46.0766V44.8145C148.415 44.843 148.517 44.8668 148.66 44.8858C148.807 44.9048 148.959 44.9143 149.116 44.9143C149.396 44.9143 149.637 44.8573 149.836 44.7432C150.041 44.6291 150.212 44.4699 150.35 44.2654C150.492 44.0658 150.606 43.8376 150.692 43.5809L150.884 43.0105L148.275 35.3736H149.886L151.833 41.7911H151.633L153.53 35.3736H155.12L152.403 43.5025C152.237 44.0111 152.032 44.4651 151.79 44.8644C151.548 45.2685 151.224 45.587 150.82 45.8199C150.416 46.0528 149.884 46.1693 149.223 46.1693Z" fill="#ECECEC"/>
<defs>
<linearGradient id="paint0_linear_4315_144" x1="12.5163" y1="20.8296" x2="19.3251" y2="37.415" gradientUnits="userSpaceOnUse">
<stop stop-color="#FF4A23"/>
<stop offset="1"/>
</linearGradient>
</defs>
</svg>
