<svg width="162" height="48" viewBox="0 0 162 48" fill="none" xmlns="http://www.w3.org/2000/svg">
<circle cx="23.0841" cy="30.9747" r="12.9239" fill="url(#paint0_linear_6536_3190)"/>
<path d="M36.0075 30.6933C36.0075 32.5659 35.6589 34.4684 34.9616 36.4007C34.2644 38.3331 33.1986 40.126 31.7643 41.7794C30.3499 43.413 28.557 44.7277 26.3856 45.7238C24.2142 46.7199 21.6643 47.2179 18.7358 47.2179C14.7715 47.2179 11.3849 46.2517 8.57606 44.3194C5.7871 42.3671 3.65553 39.6877 2.18137 36.2812C0.727122 32.8747 0 28.9602 0 24.5377C0 20.0952 0.727122 16.1708 2.18137 12.7643C3.65553 9.35774 5.7871 6.6883 8.57606 4.75595C11.3849 2.8236 14.7715 1.85742 18.7358 1.85742C22.0228 1.85742 24.8317 2.48494 27.1625 3.73997C29.4933 4.995 31.3559 6.60862 32.7504 8.58081C34.1449 10.553 35.0812 12.6148 35.5593 14.7663C35.8581 16.0214 36.0075 17.2166 36.0075 18.3521H28.0888C28.0888 17.7744 28.049 17.1768 27.9693 16.5592C27.7502 15.0452 27.2422 13.6707 26.4453 12.4356C25.6684 11.1805 24.6325 10.1944 23.3376 9.47726C22.0428 8.74018 20.5088 8.37164 18.7358 8.37164C16.6242 8.37164 14.7616 8.95931 13.148 10.1347C11.5543 11.31 10.2992 13.093 9.38286 15.4835C8.46649 17.874 8.00831 20.8921 8.00831 24.5377C8.00831 28.1434 8.46649 31.1515 9.38286 33.5619C10.2992 35.9724 11.5543 37.7753 13.148 38.9705C14.7616 40.1658 16.6242 40.7634 18.7358 40.7634C20.2499 40.7634 21.5846 40.4845 22.74 39.9268C23.8954 39.369 24.8716 38.6219 25.6684 37.6856C26.4653 36.7294 27.0629 35.6537 27.4613 34.4584C27.8797 33.2631 28.0888 32.0081 28.0888 30.6933H36.0075Z" fill="white"/>
<path d="M73.3833 17.1964C73.3833 18.1795 73.2003 19.1782 72.8343 20.1927C72.4683 21.2071 71.9087 22.1484 71.1557 23.0164C70.4132 23.874 69.472 24.5642 68.332 25.0871C67.1921 25.61 65.8534 25.8715 64.3161 25.8715C62.2349 25.8715 60.457 25.3643 58.9824 24.3498C57.5183 23.3249 56.3992 21.9183 55.6253 20.1299C54.8619 18.3416 54.4802 16.2866 54.4802 13.9648C54.4802 11.6327 54.8619 9.57239 55.6253 7.78404C56.3992 5.99569 57.5183 4.59429 58.9824 3.57984C60.457 2.5654 62.2349 2.05818 64.3161 2.05818C66.0417 2.05818 67.5163 2.38761 68.7399 3.04647C69.9635 3.70534 70.9414 4.55245 71.6734 5.58782C72.4055 6.62318 72.897 7.7056 73.148 8.83509C73.3049 9.49395 73.3833 10.1214 73.3833 10.7176H69.2262C69.2262 10.4143 69.2053 10.1005 69.1635 9.77632C69.0484 8.9815 68.7817 8.25989 68.3634 7.61148C67.9555 6.95261 67.4117 6.43493 66.7319 6.05844C66.0521 5.67148 65.2469 5.478 64.3161 5.478C63.2075 5.478 62.2297 5.78652 61.3826 6.40356C60.5459 7.02059 59.887 7.9566 59.406 9.21158C58.9249 10.4666 58.6843 12.051 58.6843 13.9648C58.6843 15.8578 58.9249 17.437 59.406 18.7024C59.887 19.9678 60.5459 20.9143 61.3826 21.5418C62.2297 22.1693 63.2075 22.483 64.3161 22.483C65.1109 22.483 65.8116 22.3366 66.4182 22.0438C67.0248 21.751 67.5372 21.3588 67.9555 20.8672C68.3739 20.3652 68.6876 19.8005 68.8968 19.173C69.1164 18.5455 69.2262 17.8867 69.2262 17.1964H73.3833ZM76.8002 25.5264V2.38761H85.7106C88.0428 2.38761 89.7945 2.92098 90.9659 3.98771C92.1372 5.05445 92.7228 6.62318 92.7228 8.6939C92.7228 9.90705 92.4928 10.9372 92.0326 11.7843C91.5724 12.6314 91.0129 13.285 90.3541 13.7452C89.6952 14.2054 89.0677 14.4668 88.4716 14.5296C89.0782 14.5714 89.6638 14.7283 90.2286 15.0002C90.7933 15.2721 91.2535 15.7009 91.609 16.2866C91.9751 16.8618 92.1581 17.6409 92.1581 18.624C92.1581 19.4083 92.1581 20.1927 92.1581 20.9771C92.1581 21.751 92.1581 22.5301 92.1581 23.3145C92.1581 23.806 92.1999 24.2609 92.2836 24.6793C92.3673 25.0871 92.4718 25.3695 92.5973 25.5264H88.4402C88.3356 25.3381 88.2415 25.0505 88.1578 24.6636C88.0846 24.2662 88.048 23.8165 88.048 23.3145C88.048 22.6033 88.048 21.9078 88.048 21.228C88.048 20.5378 88.048 19.8319 88.048 19.1103C88.048 18.1586 87.7813 17.437 87.248 16.9454C86.7146 16.4539 85.9093 16.2081 84.8321 16.2081H79.7338L80.8319 14.8119V25.5264H76.8002ZM80.8319 14.4668L79.7338 12.9138H84.8635C85.5433 12.9138 86.1551 12.7569 86.6989 12.4432C87.2427 12.119 87.6715 11.6693 87.9853 11.0941C88.3095 10.5189 88.4716 9.8443 88.4716 9.0704C88.4716 7.94091 88.1474 7.0938 87.499 6.52905C86.8506 5.96431 85.9302 5.68194 84.738 5.68194H79.6239L80.8319 4.22302V14.4668ZM98.6384 5.68194L100.505 3.62691V13.5099L99.5326 12.2706H108.192V15.5649H99.5326L100.505 14.3413V24.2871L98.6384 22.232H109.933V25.5264H96.3481V2.38761H109.933V5.68194H98.6384ZM128.79 5.68194H121.464L122.986 3.62691V25.5264H118.844V3.62691L120.444 5.68194H113.056V2.38761H128.79V5.68194ZM131.952 25.5264V2.38761H136.03V25.5264H131.952ZM149.482 25.8715C148.081 25.8715 146.773 25.61 145.56 25.0871C144.347 24.5642 143.28 23.7955 142.36 22.7811C141.45 21.7562 140.739 20.5064 140.226 19.0318C139.724 17.5468 139.473 15.8473 139.473 13.9335C139.473 12.0196 139.724 10.3254 140.226 8.85077C140.739 7.37617 141.45 6.13687 142.36 5.13289C143.27 4.11844 144.331 3.35499 145.544 2.84254C146.768 2.31963 148.081 2.05818 149.482 2.05818C150.904 2.05818 152.222 2.31963 153.435 2.84254C154.659 3.35499 155.725 4.11844 156.635 5.13289C157.545 6.13687 158.251 7.37617 158.753 8.85077C159.266 10.3254 159.522 12.0196 159.522 13.9335C159.522 15.8473 159.266 17.5468 158.753 19.0318C158.241 20.5064 157.524 21.7562 156.604 22.7811C155.694 23.7955 154.633 24.5642 153.419 25.0871C152.206 25.61 150.894 25.8715 149.482 25.8715ZM149.482 22.4673C150.57 22.4673 151.553 22.1745 152.431 21.5889C153.31 20.9927 154.005 20.0672 154.518 18.8122C155.04 17.5572 155.302 15.931 155.302 13.9335C155.302 11.9255 155.04 10.3045 154.518 9.0704C153.995 7.82587 153.294 6.91601 152.415 6.34081C151.537 5.76561 150.559 5.478 149.482 5.478C148.426 5.478 147.453 5.76561 146.564 6.34081C145.686 6.91601 144.98 7.82587 144.446 9.0704C143.923 10.3045 143.662 11.9255 143.662 13.9335C143.662 15.9414 143.923 17.5729 144.446 18.8279C144.98 20.0829 145.686 21.0032 146.564 21.5889C147.453 22.1745 148.426 22.4673 149.482 22.4673Z" fill="white"/>
<path d="M60.649 43.6224C60.0263 43.6224 59.4535 43.4727 58.9306 43.1732C58.4076 42.8689 57.9893 42.4221 57.6756 41.8326C57.3618 41.2432 57.205 40.523 57.205 39.6721C57.205 38.8402 57.3642 38.1342 57.6827 37.5543C58.0012 36.9743 58.4219 36.5346 58.9448 36.2351C59.4677 35.9309 60.0358 35.7788 60.649 35.7788C61.2385 35.7788 61.7852 35.9214 62.2891 36.2066C62.7977 36.4918 63.2065 36.8887 63.5155 37.3974C63.8245 37.9013 63.979 38.4836 63.979 39.1444C63.979 39.1634 63.979 39.1824 63.979 39.2014C63.979 39.2157 63.979 39.23 63.979 39.2442L63.0806 39.2727C63.0806 39.2585 63.0806 39.2442 63.0806 39.23C63.0806 39.2109 63.0806 39.1943 63.0806 39.18C63.0806 38.7855 62.9807 38.4361 62.7811 38.1318C62.5814 37.8229 62.3176 37.5804 61.9896 37.4045C61.6663 37.2239 61.3217 37.1336 60.9556 37.1336C60.3424 37.1336 59.829 37.3404 59.4154 37.7539C59.0019 38.1627 58.7951 38.8021 58.7951 39.6721C58.7951 40.5372 59.0019 41.179 59.4154 41.5973C59.8338 42.0109 60.3472 42.2177 60.9556 42.2177C61.3359 42.2177 61.6877 42.1274 62.011 41.9467C62.3342 41.7613 62.5933 41.5094 62.7882 41.1909C62.9831 40.8724 63.0806 40.5087 63.0806 40.0999L63.979 40.1355C63.979 40.7916 63.8293 41.3834 63.5298 41.9111C63.2351 42.4387 62.8357 42.857 62.3318 43.166C61.8327 43.4703 61.2718 43.6224 60.649 43.6224ZM63.0806 43.4727V32.3275H64.635V43.4727H63.0806ZM66.6412 43.4727V35.9H68.1671V43.4727H66.6412ZM67.4113 34.3312C67.1451 34.3312 66.9145 34.2599 66.7196 34.1173C66.5295 33.97 66.4344 33.7679 66.4344 33.5112C66.4344 33.2593 66.5295 33.062 66.7196 32.9194C66.9145 32.772 67.1451 32.6983 67.4113 32.6983C67.6727 32.6983 67.8985 32.772 68.0887 32.9194C68.2836 33.062 68.381 33.2593 68.381 33.5112C68.381 33.7679 68.2836 33.97 68.0887 34.1173C67.8985 34.2599 67.6727 34.3312 67.4113 34.3312ZM75.1969 42.8666C75.6247 42.9046 76.0003 42.9854 76.3235 43.109C76.6468 43.2278 76.8987 43.4037 77.0793 43.6367C77.2647 43.8743 77.3574 44.1857 77.3574 44.5708C77.3574 45.0034 77.2101 45.3789 76.9153 45.6974C76.6254 46.0207 76.1904 46.2702 75.6104 46.4461C75.0305 46.6268 74.3103 46.7171 73.4499 46.7171C72.2187 46.7171 71.2798 46.5388 70.6333 46.1823C69.9868 45.8258 69.6635 45.3409 69.6635 44.7276C69.6635 44.5422 69.6849 44.3782 69.7277 44.2356C69.7705 44.093 69.8228 43.9742 69.8846 43.8791L71.325 44.093C71.2917 44.1406 71.2584 44.2095 71.2251 44.2998C71.1919 44.3949 71.1752 44.509 71.1752 44.6421C71.1752 44.9796 71.382 45.2197 71.7956 45.3623C72.2092 45.5049 72.782 45.5762 73.5141 45.5762C74.0512 45.5762 74.4957 45.5381 74.8475 45.4621C75.204 45.3908 75.4702 45.2862 75.6461 45.1483C75.822 45.0105 75.9099 44.8489 75.9099 44.6635C75.9099 44.383 75.7887 44.2071 75.5463 44.1358C75.3038 44.0645 75.0115 44.0146 74.6692 43.9861L71.7956 43.7507C71.2964 43.708 70.8876 43.5582 70.5691 43.3015C70.2554 43.0448 70.0985 42.7216 70.0985 42.3318C70.0985 42.0893 70.1603 41.8635 70.2839 41.6544C70.4075 41.4452 70.5501 41.2693 70.7117 41.1267C70.8781 40.9841 71.0207 40.8961 71.1396 40.8629L72.1521 41.3477C72.0428 41.362 71.9097 41.4357 71.7528 41.5688C71.6007 41.6971 71.5246 41.8493 71.5246 42.0251C71.5246 42.1868 71.5912 42.3199 71.7243 42.4245C71.8621 42.529 72.1283 42.598 72.5229 42.6312L75.1969 42.8666ZM76.1452 35.9H77.55L76.9724 38.8592C76.8678 39.4106 76.6753 39.9097 76.3948 40.3566C76.1191 40.7987 75.7436 41.1481 75.2682 41.4048C74.7976 41.6615 74.2105 41.7898 73.5069 41.7898C72.7748 41.7898 72.145 41.6639 71.6173 41.4119C71.0897 41.16 70.6832 40.8106 70.398 40.3637C70.1175 39.9121 69.9773 39.3987 69.9773 38.8235C69.9773 38.2388 70.1223 37.7159 70.4122 37.2548C70.707 36.7937 71.111 36.4324 71.6244 36.1709C72.1426 35.9095 72.7344 35.7788 73.4 35.7788C73.9609 35.7788 74.4577 35.8738 74.8903 36.064C75.3276 36.2541 75.6746 36.4966 75.9313 36.7913C76.188 37.086 76.3283 37.3926 76.352 37.7111L75.9099 37.7611L76.1452 35.9ZM73.4998 40.5277C73.9134 40.5277 74.2699 40.4612 74.5694 40.3281C74.8689 40.1902 75.0994 39.9929 75.261 39.7362C75.4227 39.4748 75.5035 39.161 75.5035 38.795C75.5035 38.4337 75.4227 38.1247 75.261 37.868C75.0994 37.6066 74.8689 37.4069 74.5694 37.269C74.2699 37.1264 73.9157 37.0551 73.5069 37.0551C73.1124 37.0551 72.763 37.1288 72.4587 37.2762C72.1592 37.4188 71.9239 37.6208 71.7528 37.8823C71.5817 38.1437 71.4961 38.4551 71.4961 38.8164C71.4961 39.1777 71.5769 39.4867 71.7385 39.7434C71.9002 39.9953 72.1307 40.1902 72.4302 40.3281C72.7297 40.4612 73.0862 40.5277 73.4998 40.5277ZM79.0361 43.4727V35.9H80.5621V43.4727H79.0361ZM79.8062 34.3312C79.54 34.3312 79.3095 34.2599 79.1146 34.1173C78.9244 33.97 78.8293 33.7679 78.8293 33.5112C78.8293 33.2593 78.9244 33.062 79.1146 32.9194C79.3095 32.772 79.54 32.6983 79.8062 32.6983C80.0677 32.6983 80.2935 32.772 80.4836 32.9194C80.6785 33.062 80.776 33.2593 80.776 33.5112C80.776 33.7679 80.6785 33.97 80.4836 34.1173C80.2935 34.2599 80.0677 34.3312 79.8062 34.3312ZM85.8591 43.601C85.6072 43.601 85.3552 43.5749 85.1033 43.5226C84.8561 43.4703 84.6279 43.3752 84.4187 43.2373C84.2143 43.0947 84.0503 42.8927 83.9267 42.6312C83.8031 42.3698 83.7413 42.0275 83.7413 41.6044C83.7413 41.5046 83.7413 41.4 83.7413 41.2907C83.7413 41.1814 83.7413 41.0696 83.7413 40.9556V37.1835H81.923V35.9H82.8785C83.0829 35.9 83.2422 35.8928 83.3563 35.8786C83.4751 35.8596 83.5607 35.8192 83.613 35.7574C83.67 35.6908 83.7057 35.5862 83.7199 35.4436C83.7342 35.301 83.7413 35.1061 83.7413 34.8589V33.3971H85.2887V35.9H87.6061V37.1835H85.2887V40.542C85.2887 40.6371 85.2887 40.7321 85.2887 40.8272C85.2887 40.9223 85.2887 41.0102 85.2887 41.091C85.2887 41.4713 85.3338 41.7708 85.4241 41.9895C85.5192 42.2082 85.7331 42.3175 86.0659 42.3175C86.2085 42.3175 86.344 42.3056 86.4723 42.2818C86.6007 42.2581 86.6981 42.2319 86.7647 42.2034V43.4655C86.6791 43.4988 86.5579 43.5297 86.401 43.5582C86.2442 43.5867 86.0635 43.601 85.8591 43.601ZM91.4851 43.6224C90.9147 43.6224 90.4132 43.5321 89.9806 43.3514C89.5528 43.1708 89.22 42.9117 88.9823 42.5742C88.7446 42.2367 88.6258 41.8302 88.6258 41.3549C88.6258 40.8462 88.7589 40.4255 89.0251 40.0928C89.2961 39.76 89.6668 39.5033 90.1375 39.3227C90.6128 39.1373 91.1524 39.016 91.7561 38.959C92.6546 38.8687 93.2868 38.7807 93.6528 38.6952C94.0236 38.6096 94.209 38.4694 94.209 38.2745C94.209 38.2697 94.209 38.265 94.209 38.2602C94.209 37.8751 94.045 37.5828 93.717 37.3831C93.389 37.1835 92.9208 37.0836 92.3123 37.0836C91.6705 37.0836 91.1738 37.1977 90.822 37.4259C90.475 37.6493 90.3015 38.0059 90.3015 38.4955H88.7826C88.7826 37.9156 88.9324 37.4235 89.2319 37.0195C89.5361 36.6154 89.9544 36.3088 90.4869 36.0996C91.0193 35.8857 91.6301 35.7788 92.3194 35.7788C92.9517 35.7788 93.5269 35.8762 94.045 36.0711C94.5679 36.2613 94.9839 36.5465 95.2929 36.9268C95.6019 37.3071 95.7564 37.7801 95.7564 38.3458C95.7564 38.4456 95.7564 38.5454 95.7564 38.6452C95.7564 38.7403 95.7564 38.8378 95.7564 38.9376V41.961C95.7564 42.1369 95.7635 42.308 95.7778 42.4744C95.792 42.636 95.8182 42.781 95.8562 42.9093C95.899 43.0567 95.9489 43.1779 96.0059 43.273C96.0677 43.3681 96.1176 43.4346 96.1557 43.4727H94.6155C94.5869 43.4441 94.5442 43.3847 94.4871 43.2944C94.4348 43.1993 94.3873 43.09 94.3445 42.9664C94.3017 42.8475 94.2684 42.7121 94.2447 42.5599C94.2257 42.4031 94.2162 42.2343 94.2162 42.0537L94.5014 42.2533C94.3588 42.529 94.1425 42.7691 93.8525 42.9735C93.5673 43.1779 93.2226 43.3372 92.8186 43.4513C92.4192 43.5654 91.9748 43.6224 91.4851 43.6224ZM91.806 42.3389C92.2481 42.3389 92.6498 42.27 93.0111 42.1321C93.3771 41.9895 93.6695 41.7756 93.8881 41.4904C94.1068 41.2004 94.2162 40.8367 94.2162 40.3994V39.1444L94.5798 39.6221C94.2756 39.741 93.9024 39.8384 93.4603 39.9145C93.023 39.9858 92.5714 40.0452 92.1055 40.0928C91.4637 40.1498 90.9812 40.2615 90.658 40.4279C90.3347 40.5895 90.1731 40.8605 90.1731 41.2408C90.1731 41.6068 90.3062 41.8825 90.5724 42.0679C90.8434 42.2486 91.2546 42.3389 91.806 42.3389ZM99.268 32.3275V43.4727H97.742V32.3275H99.268ZM107.543 43.6224C106.972 43.6224 106.471 43.5321 106.038 43.3514C105.61 43.1708 105.278 42.9117 105.04 42.5742C104.802 42.2367 104.684 41.8302 104.684 41.3549C104.684 40.8462 104.817 40.4255 105.083 40.0928C105.354 39.76 105.725 39.5033 106.195 39.3227C106.671 39.1373 107.21 39.016 107.814 38.959C108.712 38.8687 109.345 38.7807 109.711 38.6952C110.081 38.6096 110.267 38.4694 110.267 38.2745C110.267 38.2697 110.267 38.265 110.267 38.2602C110.267 37.8751 110.103 37.5828 109.775 37.3831C109.447 37.1835 108.979 37.0836 108.37 37.0836C107.728 37.0836 107.232 37.1977 106.88 37.4259C106.533 37.6493 106.359 38.0059 106.359 38.4955H104.84C104.84 37.9156 104.99 37.4235 105.29 37.0195C105.594 36.6154 106.012 36.3088 106.545 36.0996C107.077 35.8857 107.688 35.7788 108.377 35.7788C109.009 35.7788 109.585 35.8762 110.103 36.0711C110.626 36.2613 111.042 36.5465 111.351 36.9268C111.66 37.3071 111.814 37.7801 111.814 38.3458C111.814 38.4456 111.814 38.5454 111.814 38.6452C111.814 38.7403 111.814 38.8378 111.814 38.9376V41.961C111.814 42.1369 111.821 42.308 111.836 42.4744C111.85 42.636 111.876 42.781 111.914 42.9093C111.957 43.0567 112.007 43.1779 112.064 43.273C112.125 43.3681 112.175 43.4346 112.213 43.4727H110.673C110.645 43.4441 110.602 43.3847 110.545 43.2944C110.493 43.1993 110.445 43.09 110.402 42.9664C110.359 42.8475 110.326 42.7121 110.302 42.5599C110.283 42.4031 110.274 42.2343 110.274 42.0537L110.559 42.2533C110.417 42.529 110.2 42.7691 109.91 42.9735C109.625 43.1779 109.28 43.3372 108.876 43.4513C108.477 43.5654 108.033 43.6224 107.543 43.6224ZM107.864 42.3389C108.306 42.3389 108.708 42.27 109.069 42.1321C109.435 41.9895 109.727 41.7756 109.946 41.4904C110.165 41.2004 110.274 40.8367 110.274 40.3994V39.1444L110.638 39.6221C110.333 39.741 109.96 39.8384 109.518 39.9145C109.081 39.9858 108.629 40.0452 108.163 40.0928C107.521 40.1498 107.039 40.2615 106.716 40.4279C106.392 40.5895 106.231 40.8605 106.231 41.2408C106.231 41.6068 106.364 41.8825 106.63 42.0679C106.901 42.2486 107.312 42.3389 107.864 42.3389ZM118.663 42.8666C119.091 42.9046 119.466 42.9854 119.789 43.109C120.113 43.2278 120.365 43.4037 120.545 43.6367C120.731 43.8743 120.823 44.1857 120.823 44.5708C120.823 45.0034 120.676 45.3789 120.381 45.6974C120.091 46.0207 119.656 46.2702 119.076 46.4461C118.496 46.6268 117.776 46.7171 116.916 46.7171C115.685 46.7171 114.746 46.5388 114.099 46.1823C113.453 45.8258 113.129 45.3409 113.129 44.7276C113.129 44.5422 113.151 44.3782 113.194 44.2356C113.236 44.093 113.289 43.9742 113.351 43.8791L114.791 44.093C114.758 44.1406 114.724 44.2095 114.691 44.2998C114.658 44.3949 114.641 44.509 114.641 44.6421C114.641 44.9796 114.848 45.2197 115.262 45.3623C115.675 45.5049 116.248 45.5762 116.98 45.5762C117.517 45.5762 117.962 45.5381 118.313 45.4621C118.67 45.3908 118.936 45.2862 119.112 45.1483C119.288 45.0105 119.376 44.8489 119.376 44.6635C119.376 44.383 119.255 44.2071 119.012 44.1358C118.77 44.0645 118.477 44.0146 118.135 43.9861L115.262 43.7507C114.762 43.708 114.354 43.5582 114.035 43.3015C113.721 43.0448 113.564 42.7216 113.564 42.3318C113.564 42.0893 113.626 41.8635 113.75 41.6544C113.873 41.4452 114.016 41.2693 114.178 41.1267C114.344 40.9841 114.487 40.8961 114.606 40.8629L115.618 41.3477C115.509 41.362 115.376 41.4357 115.219 41.5688C115.067 41.6971 114.991 41.8493 114.991 42.0251C114.991 42.1868 115.057 42.3199 115.19 42.4245C115.328 42.529 115.594 42.598 115.989 42.6312L118.663 42.8666ZM119.611 35.9H121.016L120.438 38.8592C120.334 39.4106 120.141 39.9097 119.861 40.3566C119.585 40.7987 119.209 41.1481 118.734 41.4048C118.264 41.6615 117.676 41.7898 116.973 41.7898C116.241 41.7898 115.611 41.6639 115.083 41.4119C114.556 41.16 114.149 40.8106 113.864 40.3637C113.583 39.9121 113.443 39.3987 113.443 38.8235C113.443 38.2388 113.588 37.7159 113.878 37.2548C114.173 36.7937 114.577 36.4324 115.09 36.1709C115.609 35.9095 116.2 35.7788 116.866 35.7788C117.427 35.7788 117.924 35.8738 118.356 36.064C118.794 36.2541 119.141 36.4966 119.397 36.7913C119.654 37.086 119.794 37.3926 119.818 37.7111L119.376 37.7611L119.611 35.9ZM116.966 40.5277C117.379 40.5277 117.736 40.4612 118.035 40.3281C118.335 40.1902 118.565 39.9929 118.727 39.7362C118.889 39.4748 118.969 39.161 118.969 38.795C118.969 38.4337 118.889 38.1247 118.727 37.868C118.565 37.6066 118.335 37.4069 118.035 37.269C117.736 37.1264 117.382 37.0551 116.973 37.0551C116.578 37.0551 116.229 37.1288 115.925 37.2762C115.625 37.4188 115.39 37.6208 115.219 37.8823C115.048 38.1437 114.962 38.4551 114.962 38.8164C114.962 39.1777 115.043 39.4867 115.204 39.7434C115.366 39.9953 115.597 40.1902 115.896 40.3281C116.196 40.4612 116.552 40.5277 116.966 40.5277ZM122.695 40.2282V39.0232H128.272L128.058 39.3797C128.058 39.3512 128.058 39.3227 128.058 39.2941C128.058 39.2609 128.058 39.2323 128.058 39.2086C128.058 38.8235 127.975 38.4694 127.808 38.1461C127.642 37.8181 127.392 37.5566 127.059 37.3617C126.731 37.1621 126.32 37.0623 125.826 37.0623C125.331 37.0623 124.896 37.1692 124.521 37.3831C124.15 37.5923 123.86 37.8918 123.651 38.2816C123.447 38.6666 123.344 39.1301 123.344 39.6721C123.344 40.2235 123.444 40.6989 123.644 41.0982C123.844 41.4927 124.131 41.797 124.507 42.0109C124.882 42.2248 125.331 42.3318 125.854 42.3318C126.22 42.3318 126.537 42.2961 126.803 42.2248C127.074 42.1487 127.295 42.0489 127.466 41.9253C127.642 41.8017 127.775 41.6686 127.865 41.526C127.955 41.3786 128.008 41.2337 128.022 41.091H129.562C129.534 41.4 129.432 41.7066 129.256 42.0109C129.085 42.3104 128.84 42.5837 128.521 42.8309C128.207 43.0733 127.822 43.2682 127.366 43.4156C126.914 43.5582 126.394 43.6295 125.804 43.6295C125.015 43.6295 124.324 43.4631 123.729 43.1304C123.135 42.7976 122.672 42.3365 122.339 41.7471C122.006 41.1528 121.84 40.4731 121.84 39.7077C121.84 38.9281 122.009 38.2436 122.346 37.6541C122.684 37.0646 123.152 36.6059 123.751 36.2779C124.35 35.9451 125.037 35.7788 125.812 35.7788C126.601 35.7788 127.283 35.9451 127.858 36.2779C128.438 36.6107 128.885 37.0694 129.199 37.6541C129.512 38.2388 129.669 38.9115 129.669 39.6721C129.669 39.7624 129.667 39.867 129.662 39.9858C129.657 40.1046 129.65 40.1855 129.641 40.2282H122.695ZM136.785 43.4727V39.9787C136.785 39.7743 136.785 39.6007 136.785 39.4581C136.785 39.3155 136.785 39.1824 136.785 39.0588C136.785 38.688 136.728 38.3624 136.614 38.0819C136.499 37.7967 136.312 37.5757 136.05 37.4188C135.789 37.2572 135.439 37.1763 135.002 37.1763C134.617 37.1763 134.268 37.2714 133.954 37.4616C133.645 37.6517 133.398 37.9108 133.212 38.2388C133.032 38.5621 132.941 38.9305 132.941 39.344L132.278 39.016C132.278 38.4028 132.423 37.8538 132.713 37.3689C133.003 36.8792 133.39 36.4918 133.875 36.2066C134.365 35.9214 134.9 35.7788 135.48 35.7788C136.079 35.7788 136.59 35.8952 137.013 36.1282C137.441 36.3563 137.766 36.6843 137.99 37.1122C138.218 37.5353 138.332 38.0415 138.332 38.631C138.332 38.8497 138.332 39.0921 138.332 39.3583C138.332 39.6245 138.332 39.8812 138.332 40.1284V43.4727H136.785ZM131.394 43.4727V35.9H132.941V43.4727H131.394ZM143.952 43.6224C143.191 43.6224 142.509 43.4631 141.905 43.1446C141.306 42.8214 140.833 42.3627 140.486 41.7684C140.144 41.1742 139.973 40.4754 139.973 39.6721C139.973 38.8687 140.144 38.177 140.486 37.5971C140.833 37.0123 141.306 36.5631 141.905 36.2494C142.509 35.9356 143.191 35.7788 143.952 35.7788C144.527 35.7788 145.038 35.8667 145.485 36.0426C145.931 36.2137 146.309 36.4419 146.618 36.7271C146.927 37.0123 147.163 37.3261 147.324 37.6684C147.486 38.0106 147.567 38.3529 147.567 38.6952C147.567 38.6999 147.567 38.707 147.567 38.7166C147.567 38.7261 147.567 38.7356 147.567 38.7451H146.034C146.034 38.7213 146.031 38.6952 146.027 38.6666C146.022 38.6334 146.017 38.6025 146.012 38.5739C145.974 38.2935 145.865 38.0439 145.684 37.8252C145.504 37.6066 145.266 37.433 144.971 37.3047C144.677 37.1763 144.332 37.1122 143.937 37.1122C143.505 37.1122 143.105 37.2072 142.739 37.3974C142.378 37.5828 142.088 37.8656 141.869 38.2459C141.651 38.6262 141.541 39.1016 141.541 39.6721C141.541 40.2425 141.648 40.7226 141.862 41.1124C142.081 41.4975 142.371 41.7898 142.732 41.9895C143.098 42.1892 143.5 42.289 143.937 42.289C144.408 42.289 144.793 42.2177 145.092 42.0751C145.392 41.9277 145.618 41.7328 145.77 41.4904C145.922 41.2432 146.01 40.977 146.034 40.6917H147.567C147.567 41.034 147.488 41.381 147.331 41.7328C147.175 42.0798 146.944 42.3959 146.64 42.6812C146.336 42.9664 145.958 43.1946 145.506 43.3657C145.059 43.5368 144.541 43.6224 143.952 43.6224ZM149.222 46.6957C149.018 46.6957 148.83 46.6838 148.659 46.66C148.492 46.641 148.39 46.622 148.352 46.603V45.3409C148.414 45.3694 148.516 45.3932 148.659 45.4122C148.806 45.4312 148.958 45.4407 149.115 45.4407C149.395 45.4407 149.636 45.3837 149.835 45.2696C150.04 45.1555 150.211 44.9962 150.349 44.7918C150.491 44.5922 150.605 44.364 150.691 44.1073L150.883 43.5368L148.274 35.9H149.885L151.832 42.3175H151.632L153.529 35.9H155.119L152.402 44.0288C152.236 44.5375 152.031 44.9915 151.789 45.3908C151.547 45.7949 151.223 46.1134 150.819 46.3463C150.415 46.5792 149.883 46.6957 149.222 46.6957Z" fill="#C1C1C1"/>
<defs>
<linearGradient id="paint0_linear_6536_3190" x1="12.5163" y1="21.356" x2="19.3251" y2="37.9414" gradientUnits="userSpaceOnUse">
<stop stop-color="#FF4A23"/>
<stop offset="1"/>
</linearGradient>
</defs>
</svg>
