<svg width="162" height="48" viewBox="0 0 162 48" fill="none" xmlns="http://www.w3.org/2000/svg">
<circle cx="23.0841" cy="30.9747" r="12.9239" fill="url(#paint0_linear_4312_1608)"/>
<path d="M36.0075 30.6933C36.0075 32.5659 35.6589 34.4684 34.9616 36.4007C34.2644 38.3331 33.1986 40.126 31.7643 41.7794C30.3499 43.413 28.557 44.7277 26.3856 45.7238C24.2142 46.7199 21.6643 47.2179 18.7358 47.2179C14.7715 47.2179 11.3849 46.2517 8.57606 44.3194C5.7871 42.3671 3.65553 39.6877 2.18137 36.2812C0.727122 32.8747 0 28.9602 0 24.5377C0 20.0952 0.727122 16.1708 2.18137 12.7643C3.65553 9.35774 5.7871 6.6883 8.57606 4.75595C11.3849 2.8236 14.7715 1.85742 18.7358 1.85742C22.0228 1.85742 24.8317 2.48494 27.1625 3.73997C29.4933 4.995 31.3559 6.60862 32.7504 8.58081C34.1449 10.553 35.0812 12.6148 35.5593 14.7663C35.8581 16.0214 36.0075 17.2166 36.0075 18.3521H28.0888C28.0888 17.7744 28.049 17.1768 27.9693 16.5592C27.7502 15.0452 27.2422 13.6707 26.4453 12.4356C25.6684 11.1805 24.6325 10.1944 23.3376 9.47726C22.0428 8.74018 20.5088 8.37164 18.7358 8.37164C16.6242 8.37164 14.7616 8.95931 13.148 10.1347C11.5543 11.31 10.2992 13.093 9.38286 15.4835C8.46649 17.874 8.00831 20.8921 8.00831 24.5377C8.00831 28.1434 8.46649 31.1515 9.38286 33.5619C10.2992 35.9724 11.5543 37.7753 13.148 38.9705C14.7616 40.1658 16.6242 40.7634 18.7358 40.7634C20.2499 40.7634 21.5846 40.4845 22.74 39.9268C23.8954 39.369 24.8716 38.6219 25.6684 37.6856C26.4653 36.7294 27.0629 35.6537 27.4613 34.4584C27.8797 33.2631 28.0888 32.0081 28.0888 30.6933H36.0075Z" fill="#101010"/>
<path d="M73.3814 17.1964C73.3814 18.1795 73.1984 19.1782 72.8323 20.1927C72.4663 21.2071 71.9068 22.1484 71.1538 23.0164C70.4113 23.874 69.47 24.5642 68.3301 25.0871C67.1901 25.61 65.8515 25.8715 64.3141 25.8715C62.233 25.8715 60.4551 25.3643 58.9805 24.3498C57.5163 23.3249 56.3973 21.9183 55.6234 20.1299C54.8599 18.3416 54.4782 16.2866 54.4782 13.9648C54.4782 11.6327 54.8599 9.57239 55.6234 7.78404C56.3973 5.99569 57.5163 4.59429 58.9805 3.57984C60.4551 2.5654 62.233 2.05818 64.3141 2.05818C66.0397 2.05818 67.5143 2.38761 68.738 3.04647C69.9616 3.70534 70.9394 4.55245 71.6715 5.58782C72.4035 6.62318 72.8951 7.7056 73.1461 8.83509C73.303 9.49395 73.3814 10.1214 73.3814 10.7176H69.2243C69.2243 10.4143 69.2033 10.1005 69.1615 9.77632C69.0465 8.9815 68.7798 8.25989 68.3615 7.61148C67.9536 6.95261 67.4098 6.43493 66.73 6.05844C66.0502 5.67148 65.2449 5.478 64.3141 5.478C63.2056 5.478 62.2277 5.78652 61.3806 6.40356C60.544 7.02059 59.8851 7.9566 59.404 9.21158C58.9229 10.4666 58.6824 12.051 58.6824 13.9648C58.6824 15.8578 58.9229 17.437 59.404 18.7024C59.8851 19.9678 60.544 20.9143 61.3806 21.5418C62.2277 22.1693 63.2056 22.483 64.3141 22.483C65.109 22.483 65.8097 22.3366 66.4162 22.0438C67.0228 21.751 67.5353 21.3588 67.9536 20.8672C68.3719 20.3652 68.6857 19.8005 68.8948 19.173C69.1144 18.5455 69.2243 17.8867 69.2243 17.1964H73.3814ZM76.7983 25.5264V2.38761H85.7087C88.0408 2.38761 89.7926 2.92098 90.9639 3.98771C92.1352 5.05445 92.7209 6.62318 92.7209 8.6939C92.7209 9.90705 92.4908 10.9372 92.0306 11.7843C91.5705 12.6314 91.011 13.285 90.3521 13.7452C89.6932 14.2054 89.0657 14.4668 88.4696 14.5296C89.0762 14.5714 89.6619 14.7283 90.2266 15.0002C90.7913 15.2721 91.2515 15.7009 91.6071 16.2866C91.9731 16.8618 92.1561 17.6409 92.1561 18.624C92.1561 19.4083 92.1561 20.1927 92.1561 20.9771C92.1561 21.751 92.1561 22.5301 92.1561 23.3145C92.1561 23.806 92.198 24.2609 92.2816 24.6793C92.3653 25.0871 92.4699 25.3695 92.5954 25.5264H88.4382C88.3337 25.3381 88.2395 25.0505 88.1559 24.6636C88.0827 24.2662 88.0461 23.8165 88.0461 23.3145C88.0461 22.6033 88.0461 21.9078 88.0461 21.228C88.0461 20.5378 88.0461 19.8319 88.0461 19.1103C88.0461 18.1586 87.7794 17.437 87.246 16.9454C86.7126 16.4539 85.9074 16.2081 84.8302 16.2081H79.7318L80.8299 14.8119V25.5264H76.7983ZM80.8299 14.4668L79.7318 12.9138H84.8615C85.5413 12.9138 86.1531 12.7569 86.697 12.4432C87.2408 12.119 87.6696 11.6693 87.9833 11.0941C88.3075 10.5189 88.4696 9.8443 88.4696 9.0704C88.4696 7.94091 88.1454 7.0938 87.497 6.52905C86.8486 5.96431 85.9283 5.68194 84.736 5.68194H79.622L80.8299 4.22302V14.4668ZM98.6365 5.68194L100.503 3.62691V13.5099L99.5306 12.2706H108.19V15.5649H99.5306L100.503 14.3413V24.2871L98.6365 22.232H109.931V25.5264H96.3461V2.38761H109.931V5.68194H98.6365ZM128.788 5.68194H121.462L122.984 3.62691V25.5264H118.842V3.62691L120.443 5.68194H113.054V2.38761H128.788V5.68194ZM131.95 25.5264V2.38761H136.028V25.5264H131.95ZM149.48 25.8715C148.079 25.8715 146.771 25.61 145.558 25.0871C144.345 24.5642 143.278 23.7955 142.358 22.7811C141.448 21.7562 140.737 20.5064 140.224 19.0318C139.722 17.5468 139.471 15.8473 139.471 13.9335C139.471 12.0196 139.722 10.3254 140.224 8.85077C140.737 7.37617 141.448 6.13687 142.358 5.13289C143.268 4.11844 144.329 3.35499 145.542 2.84254C146.766 2.31963 148.079 2.05818 149.48 2.05818C150.902 2.05818 152.22 2.31963 153.433 2.84254C154.657 3.35499 155.724 4.11844 156.633 5.13289C157.543 6.13687 158.249 7.37617 158.751 8.85077C159.264 10.3254 159.52 12.0196 159.52 13.9335C159.52 15.8473 159.264 17.5468 158.751 19.0318C158.239 20.5064 157.522 21.7562 156.602 22.7811C155.692 23.7955 154.631 24.5642 153.417 25.0871C152.204 25.61 150.892 25.8715 149.48 25.8715ZM149.48 22.4673C150.568 22.4673 151.551 22.1745 152.429 21.5889C153.308 20.9927 154.003 20.0672 154.516 18.8122C155.038 17.5572 155.3 15.931 155.3 13.9335C155.3 11.9255 155.038 10.3045 154.516 9.0704C153.993 7.82587 153.292 6.91601 152.413 6.34081C151.535 5.76561 150.557 5.478 149.48 5.478C148.424 5.478 147.451 5.76561 146.562 6.34081C145.684 6.91601 144.978 7.82587 144.444 9.0704C143.921 10.3045 143.66 11.9255 143.66 13.9335C143.66 15.9414 143.921 17.5729 144.444 18.8279C144.978 20.0829 145.684 21.0032 146.562 21.5889C147.451 22.1745 148.424 22.4673 149.48 22.4673Z" fill="#101010"/>
<path d="M60.6461 43.6224C60.0234 43.6224 59.4505 43.4727 58.9276 43.1732C58.4047 42.8689 57.9864 42.4221 57.6726 41.8326C57.3589 41.2432 57.202 40.523 57.202 39.6721C57.202 38.8402 57.3613 38.1342 57.6798 37.5543C57.9983 36.9743 58.419 36.5346 58.9419 36.2351C59.4648 35.9309 60.0329 35.7788 60.6461 35.7788C61.2356 35.7788 61.7822 35.9214 62.2861 36.2066C62.7948 36.4918 63.2036 36.8887 63.5126 37.3974C63.8216 37.9013 63.9761 38.4836 63.9761 39.1444C63.9761 39.1634 63.9761 39.1824 63.9761 39.2014C63.9761 39.2157 63.9761 39.23 63.9761 39.2442L63.0776 39.2727C63.0776 39.2585 63.0776 39.2442 63.0776 39.23C63.0776 39.2109 63.0776 39.1943 63.0776 39.18C63.0776 38.7855 62.9778 38.4361 62.7781 38.1318C62.5785 37.8229 62.3147 37.5804 61.9866 37.4045C61.6634 37.2239 61.3187 37.1336 60.9527 37.1336C60.3395 37.1336 59.8261 37.3404 59.4125 37.7539C58.9989 38.1627 58.7921 38.8021 58.7921 39.6721C58.7921 40.5372 58.9989 41.179 59.4125 41.5973C59.8308 42.0109 60.3442 42.2177 60.9527 42.2177C61.333 42.2177 61.6848 42.1274 62.008 41.9467C62.3313 41.7613 62.5904 41.5094 62.7853 41.1909C62.9802 40.8724 63.0776 40.5087 63.0776 40.0999L63.9761 40.1355C63.9761 40.7916 63.8263 41.3834 63.5269 41.9111C63.2321 42.4387 62.8328 42.857 62.3289 43.166C61.8298 43.4703 61.2688 43.6224 60.6461 43.6224ZM63.0776 43.4727V32.3275H64.6321V43.4727H63.0776ZM66.6382 43.4727V35.9H68.1642V43.4727H66.6382ZM67.4083 34.3312C67.1421 34.3312 66.9116 34.2599 66.7167 34.1173C66.5265 33.97 66.4315 33.7679 66.4315 33.5112C66.4315 33.2593 66.5265 33.062 66.7167 32.9194C66.9116 32.772 67.1421 32.6983 67.4083 32.6983C67.6698 32.6983 67.8956 32.772 68.0857 32.9194C68.2807 33.062 68.3781 33.2593 68.3781 33.5112C68.3781 33.7679 68.2807 33.97 68.0857 34.1173C67.8956 34.2599 67.6698 34.3312 67.4083 34.3312ZM75.1939 42.8666C75.6218 42.9046 75.9973 42.9854 76.3206 43.109C76.6438 43.2278 76.8958 43.4037 77.0764 43.6367C77.2618 43.8743 77.3545 44.1857 77.3545 44.5708C77.3545 45.0034 77.2071 45.3789 76.9124 45.6974C76.6224 46.0207 76.1875 46.2702 75.6075 46.4461C75.0276 46.6268 74.3074 46.7171 73.4469 46.7171C72.2157 46.7171 71.2769 46.5388 70.6304 46.1823C69.9839 45.8258 69.6606 45.3409 69.6606 44.7276C69.6606 44.5422 69.682 44.3782 69.7248 44.2356C69.7676 44.093 69.8199 43.9742 69.8817 43.8791L71.322 44.093C71.2888 44.1406 71.2555 44.2095 71.2222 44.2998C71.1889 44.3949 71.1723 44.509 71.1723 44.6421C71.1723 44.9796 71.3791 45.2197 71.7927 45.3623C72.2062 45.5049 72.7791 45.5762 73.5111 45.5762C74.0483 45.5762 74.4928 45.5381 74.8445 45.4621C75.2011 45.3908 75.4673 45.2862 75.6432 45.1483C75.8191 45.0105 75.907 44.8489 75.907 44.6635C75.907 44.383 75.7858 44.2071 75.5433 44.1358C75.3009 44.0645 75.0085 44.0146 74.6663 43.9861L71.7927 43.7507C71.2935 43.708 70.8847 43.5582 70.5662 43.3015C70.2524 43.0448 70.0956 42.7216 70.0956 42.3318C70.0956 42.0893 70.1574 41.8635 70.281 41.6544C70.4046 41.4452 70.5472 41.2693 70.7088 41.1267C70.8752 40.9841 71.0178 40.8961 71.1366 40.8629L72.1492 41.3477C72.0398 41.362 71.9067 41.4357 71.7499 41.5688C71.5978 41.6971 71.5217 41.8493 71.5217 42.0251C71.5217 42.1868 71.5882 42.3199 71.7213 42.4245C71.8592 42.529 72.1254 42.598 72.52 42.6312L75.1939 42.8666ZM76.1423 35.9H77.547L76.9695 38.8592C76.8649 39.4106 76.6724 39.9097 76.3919 40.3566C76.1162 40.7987 75.7406 41.1481 75.2652 41.4048C74.7946 41.6615 74.2075 41.7898 73.504 41.7898C72.7719 41.7898 72.1421 41.6639 71.6144 41.4119C71.0867 41.16 70.6803 40.8106 70.3951 40.3637C70.1146 39.9121 69.9744 39.3987 69.9744 38.8235C69.9744 38.2388 70.1193 37.7159 70.4093 37.2548C70.704 36.7937 71.1081 36.4324 71.6215 36.1709C72.1397 35.9095 72.7315 35.7788 73.397 35.7788C73.958 35.7788 74.4547 35.8738 74.8873 36.064C75.3247 36.2541 75.6717 36.4966 75.9284 36.7913C76.1851 37.086 76.3253 37.3926 76.3491 37.7111L75.907 37.7611L76.1423 35.9ZM73.4969 40.5277C73.9104 40.5277 74.267 40.4612 74.5665 40.3281C74.8659 40.1902 75.0965 39.9929 75.2581 39.7362C75.4197 39.4748 75.5006 39.161 75.5006 38.795C75.5006 38.4337 75.4197 38.1247 75.2581 37.868C75.0965 37.6066 74.8659 37.4069 74.5665 37.269C74.267 37.1264 73.9128 37.0551 73.504 37.0551C73.1094 37.0551 72.76 37.1288 72.4558 37.2762C72.1563 37.4188 71.921 37.6208 71.7499 37.8823C71.5787 38.1437 71.4932 38.4551 71.4932 38.8164C71.4932 39.1777 71.574 39.4867 71.7356 39.7434C71.8972 39.9953 72.1278 40.1902 72.4273 40.3281C72.7268 40.4612 73.0833 40.5277 73.4969 40.5277ZM79.0332 43.4727V35.9H80.5592V43.4727H79.0332ZM79.8033 34.3312C79.5371 34.3312 79.3065 34.2599 79.1116 34.1173C78.9215 33.97 78.8264 33.7679 78.8264 33.5112C78.8264 33.2593 78.9215 33.062 79.1116 32.9194C79.3065 32.772 79.5371 32.6983 79.8033 32.6983C80.0648 32.6983 80.2906 32.772 80.4807 32.9194C80.6756 33.062 80.7731 33.2593 80.7731 33.5112C80.7731 33.7679 80.6756 33.97 80.4807 34.1173C80.2906 34.2599 80.0648 34.3312 79.8033 34.3312ZM85.8562 43.601C85.6042 43.601 85.3523 43.5749 85.1003 43.5226C84.8531 43.4703 84.625 43.3752 84.4158 43.2373C84.2114 43.0947 84.0474 42.8927 83.9238 42.6312C83.8002 42.3698 83.7384 42.0275 83.7384 41.6044C83.7384 41.5046 83.7384 41.4 83.7384 41.2907C83.7384 41.1814 83.7384 41.0696 83.7384 40.9556V37.1835H81.9201V35.9H82.8756C83.08 35.9 83.2393 35.8928 83.3533 35.8786C83.4722 35.8596 83.5578 35.8192 83.61 35.7574C83.6671 35.6908 83.7027 35.5862 83.717 35.4436C83.7313 35.301 83.7384 35.1061 83.7384 34.8589V33.3971H85.2857V35.9H87.6032V37.1835H85.2857V40.542C85.2857 40.6371 85.2857 40.7321 85.2857 40.8272C85.2857 40.9223 85.2857 41.0102 85.2857 41.091C85.2857 41.4713 85.3309 41.7708 85.4212 41.9895C85.5163 42.2082 85.7302 42.3175 86.063 42.3175C86.2056 42.3175 86.3411 42.3056 86.4694 42.2818C86.5978 42.2581 86.6952 42.2319 86.7618 42.2034V43.4655C86.6762 43.4988 86.555 43.5297 86.3981 43.5582C86.2412 43.5867 86.0606 43.601 85.8562 43.601ZM91.4822 43.6224C90.9118 43.6224 90.4102 43.5321 89.9777 43.3514C89.5498 43.1708 89.2171 42.9117 88.9794 42.5742C88.7417 42.2367 88.6228 41.8302 88.6228 41.3549C88.6228 40.8462 88.7559 40.4255 89.0222 40.0928C89.2931 39.76 89.6639 39.5033 90.1345 39.3227C90.6099 39.1373 91.1495 39.016 91.7532 38.959C92.6516 38.8687 93.2839 38.7807 93.6499 38.6952C94.0207 38.6096 94.2061 38.4694 94.2061 38.2745C94.2061 38.2697 94.2061 38.265 94.2061 38.2602C94.2061 37.8751 94.0421 37.5828 93.7141 37.3831C93.3861 37.1835 92.9178 37.0836 92.3094 37.0836C91.6676 37.0836 91.1708 37.1977 90.8191 37.4259C90.472 37.6493 90.2985 38.0059 90.2985 38.4955H88.7797C88.7797 37.9156 88.9295 37.4235 89.2289 37.0195C89.5332 36.6154 89.9515 36.3088 90.4839 36.0996C91.0163 35.8857 91.6272 35.7788 92.3165 35.7788C92.9487 35.7788 93.5239 35.8762 94.0421 36.0711C94.565 36.2613 94.981 36.5465 95.2899 36.9268C95.5989 37.3071 95.7534 37.7801 95.7534 38.3458C95.7534 38.4456 95.7534 38.5454 95.7534 38.6452C95.7534 38.7403 95.7534 38.8378 95.7534 38.9376V41.961C95.7534 42.1369 95.7606 42.308 95.7748 42.4744C95.7891 42.636 95.8152 42.781 95.8533 42.9093C95.896 43.0567 95.946 43.1779 96.003 43.273C96.0648 43.3681 96.1147 43.4346 96.1527 43.4727H94.6125C94.584 43.4441 94.5412 43.3847 94.4842 43.2944C94.4319 43.1993 94.3844 43.09 94.3416 42.9664C94.2988 42.8475 94.2655 42.7121 94.2417 42.5599C94.2227 42.4031 94.2132 42.2343 94.2132 42.0537L94.4984 42.2533C94.3558 42.529 94.1395 42.7691 93.8496 42.9735C93.5643 43.1779 93.2197 43.3372 92.8156 43.4513C92.4163 43.5654 91.9718 43.6224 91.4822 43.6224ZM91.8031 42.3389C92.2452 42.3389 92.6469 42.27 93.0082 42.1321C93.3742 41.9895 93.6665 41.7756 93.8852 41.4904C94.1039 41.2004 94.2132 40.8367 94.2132 40.3994V39.1444L94.5769 39.6221C94.2726 39.741 93.8995 39.8384 93.4574 39.9145C93.02 39.9858 92.5684 40.0452 92.1026 40.0928C91.4608 40.1498 90.9783 40.2615 90.6551 40.4279C90.3318 40.5895 90.1702 40.8605 90.1702 41.2408C90.1702 41.6068 90.3033 41.8825 90.5695 42.0679C90.8405 42.2486 91.2517 42.3389 91.8031 42.3389ZM99.265 32.3275V43.4727H97.7391V32.3275H99.265ZM107.54 43.6224C106.97 43.6224 106.468 43.5321 106.035 43.3514C105.608 43.1708 105.275 42.9117 105.037 42.5742C104.799 42.2367 104.681 41.8302 104.681 41.3549C104.681 40.8462 104.814 40.4255 105.08 40.0928C105.351 39.76 105.722 39.5033 106.192 39.3227C106.668 39.1373 107.207 39.016 107.811 38.959C108.709 38.8687 109.342 38.7807 109.708 38.6952C110.078 38.6096 110.264 38.4694 110.264 38.2745C110.264 38.2697 110.264 38.265 110.264 38.2602C110.264 37.8751 110.1 37.5828 109.772 37.3831C109.444 37.1835 108.976 37.0836 108.367 37.0836C107.725 37.0836 107.229 37.1977 106.877 37.4259C106.53 37.6493 106.356 38.0059 106.356 38.4955H104.837C104.837 37.9156 104.987 37.4235 105.287 37.0195C105.591 36.6154 106.009 36.3088 106.542 36.0996C107.074 35.8857 107.685 35.7788 108.374 35.7788C109.006 35.7788 109.582 35.8762 110.1 36.0711C110.623 36.2613 111.039 36.5465 111.348 36.9268C111.657 37.3071 111.811 37.7801 111.811 38.3458C111.811 38.4456 111.811 38.5454 111.811 38.6452C111.811 38.7403 111.811 38.8378 111.811 38.9376V41.961C111.811 42.1369 111.818 42.308 111.833 42.4744C111.847 42.636 111.873 42.781 111.911 42.9093C111.954 43.0567 112.004 43.1779 112.061 43.273C112.123 43.3681 112.172 43.4346 112.21 43.4727H110.67C110.642 43.4441 110.599 43.3847 110.542 43.2944C110.49 43.1993 110.442 43.09 110.399 42.9664C110.357 42.8475 110.323 42.7121 110.299 42.5599C110.28 42.4031 110.271 42.2343 110.271 42.0537L110.556 42.2533C110.414 42.529 110.197 42.7691 109.907 42.9735C109.622 43.1779 109.277 43.3372 108.873 43.4513C108.474 43.5654 108.03 43.6224 107.54 43.6224ZM107.861 42.3389C108.303 42.3389 108.705 42.27 109.066 42.1321C109.432 41.9895 109.724 41.7756 109.943 41.4904C110.162 41.2004 110.271 40.8367 110.271 40.3994V39.1444L110.635 39.6221C110.33 39.741 109.957 39.8384 109.515 39.9145C109.078 39.9858 108.626 40.0452 108.16 40.0928C107.519 40.1498 107.036 40.2615 106.713 40.4279C106.39 40.5895 106.228 40.8605 106.228 41.2408C106.228 41.6068 106.361 41.8825 106.627 42.0679C106.898 42.2486 107.309 42.3389 107.861 42.3389ZM118.66 42.8666C119.088 42.9046 119.463 42.9854 119.787 43.109C120.11 43.2278 120.362 43.4037 120.542 43.6367C120.728 43.8743 120.82 44.1857 120.82 44.5708C120.82 45.0034 120.673 45.3789 120.378 45.6974C120.088 46.0207 119.653 46.2702 119.073 46.4461C118.494 46.6268 117.773 46.7171 116.913 46.7171C115.682 46.7171 114.743 46.5388 114.096 46.1823C113.45 45.8258 113.127 45.3409 113.127 44.7276C113.127 44.5422 113.148 44.3782 113.191 44.2356C113.234 44.093 113.286 43.9742 113.348 43.8791L114.788 44.093C114.755 44.1406 114.721 44.2095 114.688 44.2998C114.655 44.3949 114.638 44.509 114.638 44.6421C114.638 44.9796 114.845 45.2197 115.259 45.3623C115.672 45.5049 116.245 45.5762 116.977 45.5762C117.514 45.5762 117.959 45.5381 118.31 45.4621C118.667 45.3908 118.933 45.2862 119.109 45.1483C119.285 45.0105 119.373 44.8489 119.373 44.6635C119.373 44.383 119.252 44.2071 119.009 44.1358C118.767 44.0645 118.474 44.0146 118.132 43.9861L115.259 43.7507C114.759 43.708 114.351 43.5582 114.032 43.3015C113.718 43.0448 113.562 42.7216 113.562 42.3318C113.562 42.0893 113.623 41.8635 113.747 41.6544C113.871 41.4452 114.013 41.2693 114.175 41.1267C114.341 40.9841 114.484 40.8961 114.603 40.8629L115.615 41.3477C115.506 41.362 115.373 41.4357 115.216 41.5688C115.064 41.6971 114.988 41.8493 114.988 42.0251C114.988 42.1868 115.054 42.3199 115.187 42.4245C115.325 42.529 115.591 42.598 115.986 42.6312L118.66 42.8666ZM119.608 35.9H121.013L120.435 38.8592C120.331 39.4106 120.138 39.9097 119.858 40.3566C119.582 40.7987 119.207 41.1481 118.731 41.4048C118.261 41.6615 117.673 41.7898 116.97 41.7898C116.238 41.7898 115.608 41.6639 115.08 41.4119C114.553 41.16 114.146 40.8106 113.861 40.3637C113.581 39.9121 113.44 39.3987 113.44 38.8235C113.44 38.2388 113.585 37.7159 113.875 37.2548C114.17 36.7937 114.574 36.4324 115.087 36.1709C115.606 35.9095 116.197 35.7788 116.863 35.7788C117.424 35.7788 117.921 35.8738 118.353 36.064C118.791 36.2541 119.138 36.4966 119.394 36.7913C119.651 37.086 119.791 37.3926 119.815 37.7111L119.373 37.7611L119.608 35.9ZM116.963 40.5277C117.376 40.5277 117.733 40.4612 118.032 40.3281C118.332 40.1902 118.562 39.9929 118.724 39.7362C118.886 39.4748 118.967 39.161 118.967 38.795C118.967 38.4337 118.886 38.1247 118.724 37.868C118.562 37.6066 118.332 37.4069 118.032 37.269C117.733 37.1264 117.379 37.0551 116.97 37.0551C116.575 37.0551 116.226 37.1288 115.922 37.2762C115.622 37.4188 115.387 37.6208 115.216 37.8823C115.045 38.1437 114.959 38.4551 114.959 38.8164C114.959 39.1777 115.04 39.4867 115.202 39.7434C115.363 39.9953 115.594 40.1902 115.893 40.3281C116.193 40.4612 116.549 40.5277 116.963 40.5277ZM122.693 40.2282V39.0232H128.269L128.055 39.3797C128.055 39.3512 128.055 39.3227 128.055 39.2941C128.055 39.2609 128.055 39.2323 128.055 39.2086C128.055 38.8235 127.972 38.4694 127.805 38.1461C127.639 37.8181 127.389 37.5566 127.056 37.3617C126.728 37.1621 126.317 37.0623 125.823 37.0623C125.329 37.0623 124.894 37.1692 124.518 37.3831C124.147 37.5923 123.857 37.8918 123.648 38.2816C123.444 38.6666 123.341 39.1301 123.341 39.6721C123.341 40.2235 123.441 40.6989 123.641 41.0982C123.841 41.4927 124.128 41.797 124.504 42.0109C124.879 42.2248 125.329 42.3318 125.851 42.3318C126.217 42.3318 126.534 42.2961 126.8 42.2248C127.071 42.1487 127.292 42.0489 127.463 41.9253C127.639 41.8017 127.772 41.6686 127.862 41.526C127.953 41.3786 128.005 41.2337 128.019 41.091H129.559C129.531 41.4 129.429 41.7066 129.253 42.0109C129.082 42.3104 128.837 42.5837 128.518 42.8309C128.205 43.0733 127.819 43.2682 127.363 43.4156C126.911 43.5582 126.391 43.6295 125.802 43.6295C125.012 43.6295 124.321 43.4631 123.727 43.1304C123.132 42.7976 122.669 42.3365 122.336 41.7471C122.003 41.1528 121.837 40.4731 121.837 39.7077C121.837 38.9281 122.006 38.2436 122.343 37.6541C122.681 37.0646 123.149 36.6059 123.748 36.2779C124.347 35.9451 125.034 35.7788 125.809 35.7788C126.598 35.7788 127.28 35.9451 127.855 36.2779C128.435 36.6107 128.882 37.0694 129.196 37.6541C129.509 38.2388 129.666 38.9115 129.666 39.6721C129.666 39.7624 129.664 39.867 129.659 39.9858C129.654 40.1046 129.647 40.1855 129.638 40.2282H122.693ZM136.782 43.4727V39.9787C136.782 39.7743 136.782 39.6007 136.782 39.4581C136.782 39.3155 136.782 39.1824 136.782 39.0588C136.782 38.688 136.725 38.3624 136.611 38.0819C136.496 37.7967 136.309 37.5757 136.047 37.4188C135.786 37.2572 135.436 37.1763 134.999 37.1763C134.614 37.1763 134.265 37.2714 133.951 37.4616C133.642 37.6517 133.395 37.9108 133.209 38.2388C133.029 38.5621 132.938 38.9305 132.938 39.344L132.275 39.016C132.275 38.4028 132.42 37.8538 132.71 37.3689C133 36.8792 133.388 36.4918 133.872 36.2066C134.362 35.9214 134.897 35.7788 135.477 35.7788C136.076 35.7788 136.587 35.8952 137.01 36.1282C137.438 36.3563 137.763 36.6843 137.987 37.1122C138.215 37.5353 138.329 38.0415 138.329 38.631C138.329 38.8497 138.329 39.0921 138.329 39.3583C138.329 39.6245 138.329 39.8812 138.329 40.1284V43.4727H136.782ZM131.391 43.4727V35.9H132.938V43.4727H131.391ZM143.949 43.6224C143.188 43.6224 142.506 43.4631 141.902 43.1446C141.303 42.8214 140.83 42.3627 140.483 41.7684C140.141 41.1742 139.97 40.4754 139.97 39.6721C139.97 38.8687 140.141 38.177 140.483 37.5971C140.83 37.0123 141.303 36.5631 141.902 36.2494C142.506 35.9356 143.188 35.7788 143.949 35.7788C144.524 35.7788 145.035 35.8667 145.482 36.0426C145.929 36.2137 146.306 36.4419 146.615 36.7271C146.924 37.0123 147.16 37.3261 147.321 37.6684C147.483 38.0106 147.564 38.3529 147.564 38.6952C147.564 38.6999 147.564 38.707 147.564 38.7166C147.564 38.7261 147.564 38.7356 147.564 38.7451H146.031C146.031 38.7213 146.028 38.6952 146.024 38.6666C146.019 38.6334 146.014 38.6025 146.009 38.5739C145.971 38.2935 145.862 38.0439 145.681 37.8252C145.501 37.6066 145.263 37.433 144.968 37.3047C144.674 37.1763 144.329 37.1122 143.934 37.1122C143.502 37.1122 143.102 37.2072 142.736 37.3974C142.375 37.5828 142.085 37.8656 141.866 38.2459C141.648 38.6262 141.538 39.1016 141.538 39.6721C141.538 40.2425 141.645 40.7226 141.859 41.1124C142.078 41.4975 142.368 41.7898 142.729 41.9895C143.095 42.1892 143.497 42.289 143.934 42.289C144.405 42.289 144.79 42.2177 145.09 42.0751C145.389 41.9277 145.615 41.7328 145.767 41.4904C145.919 41.2432 146.007 40.977 146.031 40.6917H147.564C147.564 41.034 147.485 41.381 147.329 41.7328C147.172 42.0798 146.941 42.3959 146.637 42.6812C146.333 42.9664 145.955 43.1946 145.503 43.3657C145.056 43.5368 144.538 43.6224 143.949 43.6224ZM149.219 46.6957C149.015 46.6957 148.827 46.6838 148.656 46.66C148.489 46.641 148.387 46.622 148.349 46.603V45.3409C148.411 45.3694 148.513 45.3932 148.656 45.4122C148.803 45.4312 148.955 45.4407 149.112 45.4407C149.393 45.4407 149.633 45.3837 149.832 45.2696C150.037 45.1555 150.208 44.9962 150.346 44.7918C150.488 44.5922 150.602 44.364 150.688 44.1073L150.88 43.5368L148.271 35.9H149.882L151.829 42.3175H151.629L153.526 35.9H155.116L152.399 44.0288C152.233 44.5375 152.028 44.9915 151.786 45.3908C151.544 45.7949 151.22 46.1134 150.816 46.3463C150.412 46.5792 149.88 46.6957 149.219 46.6957Z" fill="#353535"/>
<defs>
<linearGradient id="paint0_linear_4312_1608" x1="12.5163" y1="21.356" x2="19.3251" y2="37.9414" gradientUnits="userSpaceOnUse">
<stop stop-color="#FF4A23"/>
<stop offset="1"/>
</linearGradient>
</defs>
</svg>
